<svg version="1.1" id="Layer_1" xmlns="http://www.w3.org/2000/svg" xmlns:xlink="http://www.w3.org/1999/xlink" x="0px" y="0px"
	 width="100%" viewBox="0 0 1080 1080" enable-background="new 0 0 1080 1080" xml:space="preserve">
<path fill="#1A1344" opacity="1.000000" stroke="none" 
	d="
M476.000000,1081.000000 
	C317.351593,1081.000000 159.203171,1081.000000 1.027377,1081.000000 
	C1.027377,721.059814 1.027377,361.119598 1.027377,1.089690 
	C360.898651,1.089690 720.797363,1.089690 1080.848022,1.089690 
	C1080.848022,360.999939 1080.848022,720.999939 1080.848022,1081.000000 
	C879.452454,1081.000000 677.976257,1081.000000 476.000000,1081.000000 
M372.754028,479.833984 
	C367.478790,499.056458 362.203552,518.278931 356.588196,538.740845 
	C355.354706,536.575439 354.505280,535.577759 354.179993,534.431335 
	C352.373322,528.064148 350.457764,521.713257 349.023590,515.258118 
	C346.547058,504.111359 344.443756,492.882233 342.095917,481.706146 
	C339.844666,470.989838 337.648254,460.257568 335.126556,449.603607 
	C331.812592,435.602203 328.157715,421.681854 324.736328,407.705383 
	C321.973938,396.420837 319.275360,385.119568 316.695465,373.792236 
	C316.054382,370.977417 314.669525,370.066101 311.842072,370.081818 
	C286.845612,370.220886 261.848450,370.226624 236.851669,370.320618 
	C234.802017,370.328339 232.753723,370.696655 229.798798,370.986176 
	C231.419357,376.482635 232.944977,381.170135 234.178787,385.933258 
	C237.841949,400.074738 241.235825,414.287476 245.029633,428.393097 
	C248.384430,440.866486 252.273697,453.195587 255.670914,465.658173 
	C259.029266,477.978271 261.888275,490.435150 265.288635,502.742981 
	C269.953827,519.628967 274.941223,536.425842 279.754822,553.271057 
	C282.665649,563.457703 285.451019,573.680481 288.403351,583.854919 
	C290.287231,590.347168 292.516327,596.740723 294.339233,603.248962 
	C298.223389,617.116150 301.856781,631.053650 305.761200,644.915039 
	C308.452057,654.468079 311.493774,663.921936 314.233246,673.461914 
	C315.135071,676.602417 317.004242,677.555847 320.110291,677.543884 
	C340.941772,677.463623 361.773865,677.465698 382.605316,677.551575 
	C385.624298,677.563965 387.301758,677.030396 388.176941,673.574219 
	C390.735718,663.469604 393.879852,653.514282 396.727051,643.481384 
	C401.620758,626.237183 406.556946,609.004089 411.295990,591.717224 
	C414.717743,579.235474 417.876740,566.681213 421.101196,554.145996 
	C423.774689,543.752441 426.273743,533.312805 429.069916,522.952942 
	C429.815704,520.189575 431.368256,517.643921 432.550415,514.998352 
	C433.140900,515.092529 433.731384,515.186768 434.321869,515.280945 
	C435.279053,518.218811 436.371826,521.120422 437.169922,524.100891 
	C440.590698,536.875732 443.867584,549.689270 447.310486,562.458069 
	C449.600861,570.952271 452.154236,579.375366 454.464447,587.864441 
	C459.066132,604.773376 463.580750,621.705872 468.132385,638.628418 
	C470.930664,649.032104 473.851166,659.404968 476.487427,669.849548 
	C478.197571,676.624756 479.028015,677.473389 485.843475,677.474609 
	C505.342102,677.477966 524.840759,677.522949 544.339355,677.521729 
	C553.602600,677.521179 553.598999,677.489136 556.694702,668.621460 
	C556.913269,667.995300 557.304932,667.427795 557.507507,666.798096 
	C561.159973,655.447754 565.075562,644.168823 568.230347,632.681213 
	C568.982239,629.943726 567.653931,626.303101 566.433533,623.439575 
	C564.893555,619.826111 561.995972,616.778259 560.544556,613.142761 
	C556.866150,603.929260 552.899353,594.719238 550.468811,585.147034 
	C547.299377,572.664856 544.533936,559.923828 543.354980,547.131897 
	C541.872498,531.045654 542.619629,514.825745 547.034912,499.051941 
	C550.293274,487.411102 552.456665,475.274200 557.272583,464.309052 
	C562.751648,451.834015 569.886047,439.897125 577.646729,428.655426 
	C590.562683,409.946014 606.977112,394.556000 626.434387,382.589050 
	C632.461609,378.882111 638.550903,375.276062 644.611755,371.623840 
	C641.820801,370.529022 639.228333,370.280823 636.635681,370.277985 
	C611.822815,370.250641 587.007202,370.458344 562.199219,370.111572 
	C556.929749,370.037933 555.104431,372.160950 554.181396,376.616119 
	C551.857422,387.832672 549.583374,399.063904 546.982849,410.217834 
	C543.679321,424.387299 540.021851,438.473846 536.613770,452.619476 
	C533.735779,464.565308 530.917297,476.526733 528.218079,488.514008 
	C525.852966,499.017456 523.823669,509.597504 521.385010,520.083008 
	C520.063293,525.766052 518.196411,531.322266 516.575500,536.935730 
	C514.705994,535.575623 513.860779,534.207886 513.441956,532.720154 
	C510.973236,523.952271 508.541901,515.172729 506.218140,506.365479 
	C503.855896,497.412445 501.743408,488.392731 499.321411,479.456512 
	C496.023163,467.287354 492.434631,455.196716 489.154816,443.022797 
	C485.403656,429.099426 481.853027,415.122040 478.218109,401.167389 
	C475.962433,392.507874 473.559875,383.882324 471.534241,375.169250 
	C470.725159,371.688904 469.219208,369.915649 465.526184,369.944672 
	C445.875763,370.098969 426.224518,370.240601 406.573883,370.205627 
	C402.746399,370.198822 401.329742,371.989807 400.551697,375.372345 
	C398.879364,382.642853 397.076904,389.889465 395.090881,397.080475 
	C391.308685,410.775208 387.232086,424.389313 383.517639,438.101898 
	C379.833649,451.701874 376.445068,465.381866 372.754028,479.833984 
M651.196594,388.757111 
	C646.237061,391.783630 641.081238,394.533508 636.353821,397.887238 
	C620.516724,409.122437 606.541260,422.257141 595.432861,438.345337 
	C585.702087,452.438446 578.414490,467.749481 573.644287,484.059662 
	C567.804504,504.026917 566.403564,524.652344 567.523132,545.398438 
	C568.645081,566.190491 573.171204,586.216248 582.742859,604.804199 
	C594.033508,626.730225 609.974731,644.649109 630.178528,658.912231 
	C655.843323,677.030701 684.581970,686.731384 715.520325,689.562683 
	C740.307678,691.830994 764.970642,690.270264 789.251160,683.662659 
	C812.144226,677.432556 833.037842,667.529358 851.788879,653.006470 
	C854.924072,650.578186 855.176819,648.128967 853.389648,644.810181 
	C849.774231,638.096069 846.419800,631.241943 842.855713,624.499512 
	C836.181396,611.873108 829.379761,599.313843 822.752075,586.663208 
	C820.827942,582.990540 818.539062,582.932007 815.583191,585.217224 
	C814.662170,585.929199 813.672974,586.553955 812.762939,587.278748 
	C803.225647,594.873779 792.981384,601.365845 781.515930,605.544922 
	C766.150269,611.145630 750.116638,613.025208 733.849609,612.146973 
	C715.134399,611.136658 698.080811,605.198914 683.272156,593.467529 
	C670.318420,583.205627 661.559875,569.924377 657.843689,553.971069 
	C653.507141,535.354187 654.017700,516.804871 661.290405,498.620026 
	C666.381531,485.890045 674.306946,475.557953 684.834778,467.111115 
	C696.999084,457.351379 710.689758,451.382629 726.337585,449.050781 
	C740.984009,446.868195 755.369812,447.596375 769.439636,451.047302 
	C785.607483,455.012848 799.858948,463.319977 812.518311,474.213623 
	C815.852905,477.083130 818.269226,476.753082 820.573120,472.885254 
	C832.978027,452.059357 845.398560,431.241486 857.531128,410.257477 
	C858.408630,408.739838 857.525024,405.678375 856.568359,403.785461 
	C855.745667,402.157593 853.694824,401.111511 852.106018,399.915863 
	C838.189636,389.443939 823.078857,380.928314 806.488281,375.828888 
	C793.208252,371.747009 779.500183,368.252655 765.737183,366.769531 
	C751.418030,365.226471 736.772339,365.817444 722.332581,366.616791 
	C713.299683,367.116852 704.066956,368.767792 695.485168,371.601837 
	C680.696228,376.485657 666.344849,382.694580 651.196594,388.757111 
z"/>
<path fill="#FAFAFB" opacity="1.000000" stroke="none" 
	d="
M372.840485,479.430359 
	C376.445068,465.381866 379.833649,451.701874 383.517639,438.101898 
	C387.232086,424.389313 391.308685,410.775208 395.090881,397.080475 
	C397.076904,389.889465 398.879364,382.642853 400.551697,375.372345 
	C401.329742,371.989807 402.746399,370.198822 406.573883,370.205627 
	C426.224518,370.240601 445.875763,370.098969 465.526184,369.944672 
	C469.219208,369.915649 470.725159,371.688904 471.534241,375.169250 
	C473.559875,383.882324 475.962433,392.507874 478.218109,401.167389 
	C481.853027,415.122040 485.403656,429.099426 489.154816,443.022797 
	C492.434631,455.196716 496.023163,467.287354 499.321411,479.456512 
	C501.743408,488.392731 503.855896,497.412445 506.218140,506.365479 
	C508.541901,515.172729 510.973236,523.952271 513.441956,532.720154 
	C513.860779,534.207886 514.705994,535.575623 516.575500,536.935730 
	C518.196411,531.322266 520.063293,525.766052 521.385010,520.083008 
	C523.823669,509.597504 525.852966,499.017456 528.218079,488.514008 
	C530.917297,476.526733 533.735779,464.565308 536.613770,452.619476 
	C540.021851,438.473846 543.679321,424.387299 546.982849,410.217834 
	C549.583374,399.063904 551.857422,387.832672 554.181396,376.616119 
	C555.104431,372.160950 556.929749,370.037933 562.199219,370.111572 
	C587.007202,370.458344 611.822815,370.250641 636.635681,370.277985 
	C639.228333,370.280823 641.820801,370.529022 644.611755,371.623840 
	C638.550903,375.276062 632.461609,378.882111 626.434387,382.589050 
	C606.977112,394.556000 590.562683,409.946014 577.646729,428.655426 
	C569.886047,439.897125 562.751648,451.834015 557.272583,464.309052 
	C552.456665,475.274200 550.293274,487.411102 547.034912,499.051941 
	C542.619629,514.825745 541.872498,531.045654 543.354980,547.131897 
	C544.533936,559.923828 547.299377,572.664856 550.468811,585.147034 
	C552.899353,594.719238 556.866150,603.929260 560.544556,613.142761 
	C561.995972,616.778259 564.893555,619.826111 566.433533,623.439575 
	C567.653931,626.303101 568.982239,629.943726 568.230347,632.681213 
	C565.075562,644.168823 561.159973,655.447754 557.507507,666.798096 
	C557.304932,667.427795 556.913269,667.995300 556.694702,668.621460 
	C553.598999,677.489136 553.602600,677.521179 544.339355,677.521729 
	C524.840759,677.522949 505.342102,677.477966 485.843475,677.474609 
	C479.028015,677.473389 478.197571,676.624756 476.487427,669.849548 
	C473.851166,659.404968 470.930664,649.032104 468.132385,638.628418 
	C463.580750,621.705872 459.066132,604.773376 454.464447,587.864441 
	C452.154236,579.375366 449.600861,570.952271 447.310486,562.458069 
	C443.867584,549.689270 440.590698,536.875732 437.169922,524.100891 
	C436.371826,521.120422 435.279053,518.218811 434.321869,515.280945 
	C433.731384,515.186768 433.140900,515.092529 432.550415,514.998352 
	C431.368256,517.643921 429.815704,520.189575 429.069916,522.952942 
	C426.273743,533.312805 423.774689,543.752441 421.101196,554.145996 
	C417.876740,566.681213 414.717743,579.235474 411.295990,591.717224 
	C406.556946,609.004089 401.620758,626.237183 396.727051,643.481384 
	C393.879852,653.514282 390.735718,663.469604 388.176941,673.574219 
	C387.301758,677.030396 385.624298,677.563965 382.605316,677.551575 
	C361.773865,677.465698 340.941772,677.463623 320.110291,677.543884 
	C317.004242,677.555847 315.135071,676.602417 314.233246,673.461914 
	C311.493774,663.921936 308.452057,654.468079 305.761200,644.915039 
	C301.856781,631.053650 298.223389,617.116150 294.339233,603.248962 
	C292.516327,596.740723 290.287231,590.347168 288.403351,583.854919 
	C285.451019,573.680481 282.665649,563.457703 279.754822,553.271057 
	C274.941223,536.425842 269.953827,519.628967 265.288635,502.742981 
	C261.888275,490.435150 259.029266,477.978271 255.670914,465.658173 
	C252.273697,453.195587 248.384430,440.866486 245.029633,428.393097 
	C241.235825,414.287476 237.841949,400.074738 234.178787,385.933258 
	C232.944977,381.170135 231.419357,376.482635 229.798798,370.986176 
	C232.753723,370.696655 234.802017,370.328339 236.851669,370.320618 
	C261.848450,370.226624 286.845612,370.220886 311.842072,370.081818 
	C314.669525,370.066101 316.054382,370.977417 316.695465,373.792236 
	C319.275360,385.119568 321.973938,396.420837 324.736328,407.705383 
	C328.157715,421.681854 331.812592,435.602203 335.126556,449.603607 
	C337.648254,460.257568 339.844666,470.989838 342.095917,481.706146 
	C344.443756,492.882233 346.547058,504.111359 349.023590,515.258118 
	C350.457764,521.713257 352.373322,528.064148 354.179993,534.431335 
	C354.505280,535.577759 355.354706,536.575439 356.588196,538.740845 
	C362.203552,518.278931 367.478790,499.056458 372.840485,479.430359 
z"/>
<path fill="#FA920C" opacity="1.000000" stroke="none" 
	d="
M651.503235,388.552277 
	C666.344849,382.694580 680.696228,376.485657 695.485168,371.601837 
	C704.066956,368.767792 713.299683,367.116852 722.332581,366.616791 
	C736.772339,365.817444 751.418030,365.226471 765.737183,366.769531 
	C779.500183,368.252655 793.208252,371.747009 806.488281,375.828888 
	C823.078857,380.928314 838.189636,389.443939 852.106018,399.915863 
	C853.694824,401.111511 855.745667,402.157593 856.568359,403.785461 
	C857.525024,405.678375 858.408630,408.739838 857.531128,410.257477 
	C845.398560,431.241486 832.978027,452.059357 820.573120,472.885254 
	C818.269226,476.753082 815.852905,477.083130 812.518311,474.213623 
	C799.858948,463.319977 785.607483,455.012848 769.439636,451.047302 
	C755.369812,447.596375 740.984009,446.868195 726.337585,449.050781 
	C710.689758,451.382629 696.999084,457.351379 684.834778,467.111115 
	C674.306946,475.557953 666.381531,485.890045 661.290405,498.620026 
	C654.017700,516.804871 653.507141,535.354187 657.843689,553.971069 
	C661.559875,569.924377 670.318420,583.205627 683.272156,593.467529 
	C698.080811,605.198914 715.134399,611.136658 733.849609,612.146973 
	C750.116638,613.025208 766.150269,611.145630 781.515930,605.544922 
	C792.981384,601.365845 803.225647,594.873779 812.762939,587.278748 
	C813.672974,586.553955 814.662170,585.929199 815.583191,585.217224 
	C818.539062,582.932007 820.827942,582.990540 822.752075,586.663208 
	C829.379761,599.313843 836.181396,611.873108 842.855713,624.499512 
	C846.419800,631.241943 849.774231,638.096069 853.389648,644.810181 
	C855.176819,648.128967 854.924072,650.578186 851.788879,653.006470 
	C833.037842,667.529358 812.144226,677.432556 789.251160,683.662659 
	C764.970642,690.270264 740.307678,691.830994 715.520325,689.562683 
	C684.581970,686.731384 655.843323,677.030701 630.178528,658.912231 
	C609.974731,644.649109 594.033508,626.730225 582.742859,604.804199 
	C573.171204,586.216248 568.645081,566.190491 567.523132,545.398438 
	C566.403564,524.652344 567.804504,504.026917 573.644287,484.059662 
	C578.414490,467.749481 585.702087,452.438446 595.432861,438.345337 
	C606.541260,422.257141 620.516724,409.122437 636.353821,397.887238 
	C641.081238,394.533508 646.237061,391.783630 651.503235,388.552277 
z"/>
</svg>