<?xml version="1.0" encoding="UTF-8"?>
<!DOCTYPE svg PUBLIC "-//W3C//DTD SVG 1.1//EN" "http://www.w3.org/Graphics/SVG/1.1/DTD/svg11.dtd">
<svg xmlns="http://www.w3.org/2000/svg" version="1.1" width="1080px" height="1080px" style="shape-rendering:geometricPrecision; text-rendering:geometricPrecision; image-rendering:optimizeQuality; fill-rule:evenodd; clip-rule:evenodd" xmlns:xlink="http://www.w3.org/1999/xlink">
<g><path style="opacity:1" fill="#f8f8f8" d="M -0.5,-0.5 C 28.5,-0.5 57.5,-0.5 86.5,-0.5C 37.6002,9.73293 8.60022,39.3996 -0.5,88.5C -0.5,58.8333 -0.5,29.1667 -0.5,-0.5 Z"/></g>
<g><path style="opacity:1" fill="#121232" d="M 86.5,-0.5 C 387.833,-0.5 689.167,-0.5 990.5,-0.5C 1040.53,8.85945 1070.19,38.5261 1079.5,88.5C 1079.5,387.833 1079.5,687.167 1079.5,986.5C 1071.98,1038.69 1042.31,1069.69 990.5,1079.5C 689.833,1079.5 389.167,1079.5 88.5,1079.5C 37.1915,1069.86 7.52484,1039.19 -0.5,987.5C -0.5,687.833 -0.5,388.167 -0.5,88.5C 8.60022,39.3996 37.6002,9.73293 86.5,-0.5 Z"/></g>
<g><path style="opacity:1" fill="#f8f8f8" d="M 990.5,-0.5 C 1020.17,-0.5 1049.83,-0.5 1079.5,-0.5C 1079.5,29.1667 1079.5,58.8333 1079.5,88.5C 1070.19,38.5261 1040.53,8.85945 990.5,-0.5 Z"/></g>
<g><path style="opacity:1" fill="#291e33" d="M 758.5,363.5 C 748.494,363.334 738.494,363.5 728.5,364C 723.394,363.886 718.727,364.72 714.5,366.5C 709.473,366.503 704.473,366.836 699.5,367.5C 700.514,366.235 702.014,365.569 704,365.5C 712.53,364.289 721.03,363.123 729.5,362C 736.833,361.333 744.167,361.333 751.5,362C 754.036,362.186 756.369,362.686 758.5,363.5 Z"/></g>
<g><path style="opacity:1" fill="#774e34" d="M 758.5,363.5 C 758.5,363.833 758.5,364.167 758.5,364.5C 743.763,364.255 729.096,364.922 714.5,366.5C 718.727,364.72 723.394,363.886 728.5,364C 738.494,363.5 748.494,363.334 758.5,363.5 Z"/></g>
<g><path style="opacity:1" fill="#7e5234" d="M 760.5,364.5 C 764.6,364.237 768.6,364.57 772.5,365.5C 772.5,365.833 772.5,366.167 772.5,366.5C 768.295,366.283 764.295,365.617 760.5,364.5 Z"/></g>
<g><path style="opacity:1" fill="#b07132" d="M 758.5,364.5 C 759.167,364.5 759.833,364.5 760.5,364.5C 764.295,365.617 768.295,366.283 772.5,366.5C 772.5,366.833 772.5,367.167 772.5,367.5C 745.576,364.602 718.909,365.602 692.5,370.5C 694.588,368.98 696.922,367.98 699.5,367.5C 704.473,366.836 709.473,366.503 714.5,366.5C 729.096,364.922 743.763,364.255 758.5,364.5 Z"/></g>
<g><path style="opacity:1" fill="#302d47" d="M 319.5,383.5 C 317.86,380.512 317.026,377.179 317,373.5C 316.066,372.142 315.232,370.808 314.5,369.5C 286.005,368.502 257.338,368.169 228.5,368.5C 228.111,371.553 228.777,374.22 230.5,376.5C 231.363,378.421 232.029,380.421 232.5,382.5C 232.958,386.538 233.624,390.538 234.5,394.5C 234.5,395.5 234.5,396.5 234.5,397.5C 233.542,397.047 232.708,396.381 232,395.5C 230.607,385.819 229.107,376.152 227.5,366.5C 256.211,366.825 284.877,366.492 313.5,365.5C 317.94,370.559 319.94,376.559 319.5,383.5 Z"/></g>
<g><path style="opacity:1" fill="#24223c" d="M 645.5,370.5 C 645.5,369.5 645.5,368.5 645.5,367.5C 615.5,367.5 585.5,367.5 555.5,367.5C 585.501,366.053 615.501,365.387 645.5,365.5C 648.923,366.729 649.423,368.729 647,371.5C 646.617,370.944 646.117,370.611 645.5,370.5 Z"/></g>
<g><path style="opacity:1" fill="#605b72" d="M 469.5,369.5 C 469.167,369.5 468.833,369.5 468.5,369.5C 446.167,369.5 423.833,369.5 401.5,369.5C 400.143,370.59 399.143,371.924 398.5,373.5C 398.178,371.278 398.845,369.444 400.5,368C 423.167,367.333 445.833,367.333 468.5,368C 469.056,368.383 469.389,368.883 469.5,369.5 Z"/></g>
<g><path style="opacity:1" fill="#4c475f" d="M 554.5,368.5 C 554.5,367.833 554.833,367.5 555.5,367.5C 585.5,367.5 615.5,367.5 645.5,367.5C 645.5,368.5 645.5,369.5 645.5,370.5C 642.107,372.61 638.44,374.277 634.5,375.5C 637.167,373.5 639.833,371.5 642.5,369.5C 613.338,368.502 584.005,368.169 554.5,368.5 Z"/></g>
<g><path style="opacity:1" fill="#f28f2b" d="M 772.5,367.5 C 775.152,367.41 777.485,368.076 779.5,369.5C 775.815,369.105 772.148,368.938 768.5,369C 771.121,369.939 773.788,370.772 776.5,371.5C 774.539,372.848 774.372,374.181 776,375.5C 777.667,372.343 779.167,372.176 780.5,375C 782.289,375.914 784.123,376.747 786,377.5C 786.833,377.167 787.667,376.833 788.5,376.5C 783.017,373.842 783.183,373.175 789,374.5C 790.582,376.624 790.749,378.79 789.5,381C 785.514,381.499 781.514,381.666 777.5,381.5C 777.714,383.144 777.38,384.644 776.5,386C 770.843,386.499 765.176,386.666 759.5,386.5C 759.33,387.822 759.663,388.989 760.5,390C 764.486,390.499 768.486,390.666 772.5,390.5C 771.817,392.176 770.483,392.843 768.5,392.5C 768.5,393.833 768.5,395.167 768.5,396.5C 765.813,396.336 763.146,396.503 760.5,397C 759.62,398.356 759.286,399.856 759.5,401.5C 748.167,401.5 736.833,401.5 725.5,401.5C 725.714,399.856 725.38,398.356 724.5,397C 719.781,396.918 715.281,396.085 711,394.5C 705.378,396.158 699.545,396.991 693.5,397C 691.081,398.509 690.081,400.675 690.5,403.5C 688.508,403.672 686.842,403.005 685.5,401.5C 684.106,403.725 682.94,406.058 682,408.5C 677.144,409.544 672.644,408.544 668.5,405.5C 663.328,407.156 657.995,408.489 652.5,409.5C 651.5,409.333 650.5,409.167 649.5,409C 650.357,408.311 651.023,407.478 651.5,406.5C 648.215,405.676 644.882,405.176 641.5,405C 641,404.5 640.5,404 640,403.5C 638.051,406.821 635.718,407.154 633,404.5C 632.5,404.833 632,405.167 631.5,405.5C 633.242,408.902 635.408,409.569 638,407.5C 641.411,410.014 645.244,411.014 649.5,410.5C 649.5,411.5 649.5,412.5 649.5,413.5C 647.326,413.75 645.659,414.75 644.5,416.5C 639.911,416.118 635.577,416.951 631.5,419C 628.329,422.019 625.662,425.519 623.5,429.5C 624.228,431.155 624.395,432.821 624,434.5C 622.887,435.711 621.72,435.711 620.5,434.5C 619.815,437.364 618.149,438.864 615.5,439C 614.253,437.054 612.92,435.22 611.5,433.5C 609.681,435.128 608.347,437.128 607.5,439.5C 605.865,440.33 604.198,440.497 602.5,440C 602.167,440.333 601.833,440.667 601.5,441C 604.005,443.573 603.505,445.74 600,447.5C 599.783,450.488 598.783,453.155 597,455.5C 595.228,454.01 595.061,452.343 596.5,450.5C 596.081,449.328 595.415,448.328 594.5,447.5C 594.207,451.193 592.873,454.36 590.5,457C 590,457.167 589.5,457.333 589,457.5C 587.826,456.456 586.659,455.456 585.5,454.5C 585.4,451.892 586.067,449.558 587.5,447.5C 591.27,443.678 595.27,440.011 599.5,436.5C 600.189,434.556 600.689,432.556 601,430.5C 603.442,427.58 605.609,424.58 607.5,421.5C 613.194,415.14 619.194,409.14 625.5,403.5C 634.161,398.098 642.828,392.598 651.5,387C 664.528,381.17 677.528,375.67 690.5,370.5C 691.167,370.5 691.833,370.5 692.5,370.5C 718.909,365.602 745.576,364.602 772.5,367.5 Z"/></g>
<g><path style="opacity:1" fill="#2b1e33" d="M 772.5,366.5 C 772.5,366.167 772.5,365.833 772.5,365.5C 780.646,365.534 788.646,366.367 796.5,368C 800.851,369.796 805.184,371.463 809.5,373C 810.71,374.039 811.71,375.206 812.5,376.5C 805.526,374.599 798.86,372.099 792.5,369C 785.738,368.715 779.071,367.882 772.5,366.5 Z"/></g>
<g><path style="opacity:1" fill="#9594a6" d="M 314.5,369.5 C 286.5,369.5 258.5,369.5 230.5,369.5C 230.5,371.833 230.5,374.167 230.5,376.5C 228.777,374.22 228.111,371.553 228.5,368.5C 257.338,368.169 286.005,368.502 314.5,369.5 Z"/></g>
<g><path style="opacity:1" fill="#928ea0" d="M 554.5,368.5 C 584.005,368.169 613.338,368.502 642.5,369.5C 612.942,368.854 583.609,369.521 554.5,371.5C 552.78,377.935 550.78,384.269 548.5,390.5C 549.509,382.818 551.509,375.485 554.5,368.5 Z"/></g>
<g><path style="opacity:1" fill="#f8f8f9" d="M 314.5,369.5 C 315.017,375.197 315.85,380.864 317,386.5C 317.757,388.315 318.59,389.981 319.5,391.5C 320.338,391.842 320.672,392.508 320.5,393.5C 320.334,398.511 320.501,403.511 321,408.5C 323.685,413.114 325.851,417.78 327.5,422.5C 328.934,428.649 329.767,434.983 330,441.5C 330.383,442.056 330.883,442.389 331.5,442.5C 332.606,454.96 334.606,467.293 337.5,479.5C 338.203,481.769 339.37,483.769 341,485.5C 341.171,490.533 341.671,495.533 342.5,500.5C 343.086,500.709 343.586,501.043 344,501.5C 344.894,506.365 346.061,511.032 347.5,515.5C 349.247,516.981 350.414,518.981 351,521.5C 351.339,524.88 351.839,528.213 352.5,531.5C 352.39,534.059 353.056,536.392 354.5,538.5C 355.086,538.291 355.586,537.957 356,537.5C 357.695,531.674 358.862,525.674 359.5,519.5C 359.833,519.5 360.167,519.5 360.5,519.5C 361.797,515.267 363.131,510.933 364.5,506.5C 365.485,502.924 366.152,499.258 366.5,495.5C 369.521,491.783 371.188,487.449 371.5,482.5C 371.5,482.167 371.5,481.833 371.5,481.5C 373.126,478.714 374.626,475.714 376,472.5C 377.74,464.273 379.24,455.94 380.5,447.5C 380.629,445.784 380.962,444.117 381.5,442.5C 381.673,436.811 383.173,431.477 386,426.5C 388.831,414.205 391.998,402.205 395.5,390.5C 397.247,389.019 398.414,387.019 399,384.5C 399.181,379.294 400.014,374.294 401.5,369.5C 423.833,369.5 446.167,369.5 468.5,369.5C 468.929,377.1 470.929,384.1 474.5,390.5C 474.5,391.5 474.5,392.5 474.5,393.5C 475.586,400.404 477.253,407.07 479.5,413.5C 479.833,413.5 480.167,413.5 480.5,413.5C 480.334,417.846 480.501,422.179 481,426.5C 481.902,428.431 483.069,430.097 484.5,431.5C 485.167,432.5 485.833,433.5 486.5,434.5C 486.963,437.482 487.296,440.482 487.5,443.5C 488.216,448.46 489.549,453.126 491.5,457.5C 491.873,460.574 492.539,463.574 493.5,466.5C 493.024,471.789 493.858,476.789 496,481.5C 496.333,480.833 496.667,480.167 497,479.5C 497.175,483.211 497.675,486.878 498.5,490.5C 500.844,495.181 502.344,500.181 503,505.5C 503.383,506.056 503.883,506.389 504.5,506.5C 505.933,508.558 506.6,510.892 506.5,513.5C 507.845,521.905 509.512,530.239 511.5,538.5C 513.071,539.309 514.738,539.643 516.5,539.5C 516.5,538.167 516.5,536.833 516.5,535.5C 516.5,534.833 516.5,534.167 516.5,533.5C 519.88,525.285 521.88,516.618 522.5,507.5C 522.402,505.447 523.069,503.78 524.5,502.5C 525.181,500.842 526.015,499.175 527,497.5C 528.76,485.085 530.926,472.752 533.5,460.5C 533.5,459.833 533.5,459.167 533.5,458.5C 535.597,453.01 537.764,447.344 540,441.5C 541.638,430.747 543.472,420.08 545.5,409.5C 550.152,397.35 553.152,384.683 554.5,371.5C 583.609,369.521 612.942,368.854 642.5,369.5C 639.833,371.5 637.167,373.5 634.5,375.5C 629.135,376.707 624.802,379.374 621.5,383.5C 619.456,384.508 617.456,385.508 615.5,386.5C 611.521,388.14 608.521,390.807 606.5,394.5C 603.054,395.612 601.054,397.945 600.5,401.5C 597.633,401.369 595.967,402.703 595.5,405.5C 590.169,409.209 585.503,413.542 581.5,418.5C 578.3,423.538 574.133,427.871 569,431.5C 565.891,437.42 563.058,443.42 560.5,449.5C 560.567,450.959 560.234,452.292 559.5,453.5C 557.391,456.874 555.724,460.541 554.5,464.5C 553.056,468.148 550.889,471.482 548,474.5C 547.501,478.152 547.335,481.818 547.5,485.5C 547.5,485.833 547.5,486.167 547.5,486.5C 546.053,487.134 545.387,488.301 545.5,490C 544.066,495.41 543.399,500.91 543.5,506.5C 542.85,506.804 542.183,507.137 541.5,507.5C 540.334,523.823 540.167,540.156 541,556.5C 541.698,559.004 542.531,561.337 543.5,563.5C 544.689,569.251 546.022,574.918 547.5,580.5C 548.747,584.715 549.58,589.048 550,593.5C 550.417,594.756 551.25,595.423 552.5,595.5C 552.336,598.187 552.503,600.854 553,603.5C 555.438,606.343 557.604,609.343 559.5,612.5C 559.833,613.167 560.167,613.833 560.5,614.5C 562.412,618.575 564.079,622.742 565.5,627C 564.549,630.057 564.216,633.223 564.5,636.5C 563.597,641.871 561.763,646.871 559,651.5C 558.757,657.055 557.591,662.389 555.5,667.5C 554.349,669.779 553.349,672.112 552.5,674.5C 528.158,674.833 503.824,674.5 479.5,673.5C 477.823,668.765 476.156,664.098 474.5,659.5C 473.167,657.167 471.833,654.833 470.5,652.5C 470.5,652.167 470.5,651.833 470.5,651.5C 470.664,648.813 470.497,646.146 470,643.5C 468.158,639.205 466.658,634.872 465.5,630.5C 464.14,626.807 462.806,623.141 461.5,619.5C 461.5,617.167 461.5,614.833 461.5,612.5C 459.704,607.327 458.204,601.993 457,596.5C 456.284,594.121 455.117,592.121 453.5,590.5C 453.383,585.943 452.383,581.609 450.5,577.5C 448.953,565.23 445.787,553.563 441,542.5C 439.509,537.847 438.342,533.181 437.5,528.5C 437.167,528.5 436.833,528.5 436.5,528.5C 436.884,524.511 436.217,520.845 434.5,517.5C 435.47,513.069 433.803,510.735 429.5,510.5C 429.037,513.482 428.704,516.482 428.5,519.5C 427.368,523.019 426.368,526.686 425.5,530.5C 422.839,534.274 421.839,538.607 422.5,543.5C 420.292,544.894 418.792,546.894 418,549.5C 417.267,554.541 416.434,559.541 415.5,564.5C 415.212,567.939 414.546,571.272 413.5,574.5C 412.115,575.574 410.949,576.907 410,578.5C 407.203,590.07 404.703,601.737 402.5,613.5C 401.833,616.5 401.167,619.5 400.5,622.5C 399.15,623.483 398.15,624.816 397.5,626.5C 396.789,631.266 395.789,635.933 394.5,640.5C 394.448,644.198 394.114,647.865 393.5,651.5C 393.167,651.5 392.833,651.5 392.5,651.5C 391.21,652.058 390.377,653.058 390,654.5C 389.741,659.215 388.407,663.548 386,667.5C 385.503,669.81 385.337,672.143 385.5,674.5C 362.167,674.5 338.833,674.5 315.5,674.5C 314.021,672.322 312.688,669.988 311.5,667.5C 311.515,663.44 311.015,659.44 310,655.5C 308.044,651.413 306.711,647.08 306,642.5C 305.502,640.456 304.335,639.122 302.5,638.5C 302.664,635.813 302.497,633.146 302,630.5C 296.928,620.695 293.762,610.362 292.5,599.5C 292.167,599.5 291.833,599.5 291.5,599.5C 291.982,596.169 290.982,593.503 288.5,591.5C 288.599,588.763 288.265,586.096 287.5,583.5C 285.56,572.481 283.06,561.481 280,550.5C 279.051,548.907 277.885,547.574 276.5,546.5C 276.151,539.752 275.151,533.086 273.5,526.5C 272.818,525.757 272.151,525.091 271.5,524.5C 269.987,517.059 268.154,509.725 266,502.5C 264.996,499.007 265.496,495.841 267.5,493C 263.78,492.767 261.447,490.934 260.5,487.5C 259.955,484.187 259.455,480.854 259,477.5C 258.292,476.619 257.458,475.953 256.5,475.5C 256.793,472.246 256.126,469.246 254.5,466.5C 254.662,464.473 254.495,462.473 254,460.5C 253.617,459.944 253.117,459.611 252.5,459.5C 252.674,452.847 251.007,446.847 247.5,441.5C 246.935,436.851 246.435,432.184 246,427.5C 245.329,426.748 244.496,426.414 243.5,426.5C 243.494,419.288 242.327,412.288 240,405.5C 239.292,404.619 238.458,403.953 237.5,403.5C 237.072,400.436 236.406,397.436 235.5,394.5C 235.964,389.97 234.964,385.97 232.5,382.5C 232.029,380.421 231.363,378.421 230.5,376.5C 230.5,374.167 230.5,371.833 230.5,369.5C 258.5,369.5 286.5,369.5 314.5,369.5 Z"/></g>
<g><path style="opacity:1" fill="#807e91" d="M 468.5,369.5 C 468.833,369.5 469.167,369.5 469.5,369.5C 471.319,376.327 472.986,383.327 474.5,390.5C 470.929,384.1 468.929,377.1 468.5,369.5 Z"/></g>
<g><path style="opacity:1" fill="#945e32" d="M 772.5,367.5 C 772.5,367.167 772.5,366.833 772.5,366.5C 779.071,367.882 785.738,368.715 792.5,369C 798.86,372.099 805.526,374.599 812.5,376.5C 814.565,376.953 816.232,377.953 817.5,379.5C 807.986,376.607 798.652,373.44 789.5,370C 786.183,369.502 782.85,369.335 779.5,369.5C 777.485,368.076 775.152,367.41 772.5,367.5 Z"/></g>
<g><path style="opacity:1" fill="#a4a1b0" d="M 314.5,369.5 C 315.232,370.808 316.066,372.142 317,373.5C 317.026,377.179 317.86,380.512 319.5,383.5C 319.5,385.5 319.5,387.5 319.5,389.5C 319.5,390.167 319.5,390.833 319.5,391.5C 318.59,389.981 317.757,388.315 317,386.5C 315.85,380.864 315.017,375.197 314.5,369.5 Z"/></g>
<g><path style="opacity:1" fill="#747186" d="M 634.5,375.5 C 630.699,378.907 626.366,381.573 621.5,383.5C 624.802,379.374 629.135,376.707 634.5,375.5 Z"/></g>
<g><path style="opacity:1" fill="#f6932b" d="M 779.5,369.5 C 782.85,369.335 786.183,369.502 789.5,370C 798.652,373.44 807.986,376.607 817.5,379.5C 817.833,379.5 818.167,379.5 818.5,379.5C 821.026,381.454 823.693,383.121 826.5,384.5C 826.5,385.5 826.5,386.5 826.5,387.5C 830.468,389.148 834.468,390.814 838.5,392.5C 838.291,393.086 837.957,393.586 837.5,394C 841.702,396.411 846.035,398.578 850.5,400.5C 853.161,402.907 853.661,405.573 852,408.5C 851.261,406.779 850.427,405.113 849.5,403.5C 847.554,406.086 847.554,408.419 849.5,410.5C 848.737,411.719 847.737,412.719 846.5,413.5C 847.063,414.939 847.397,416.439 847.5,418C 846.394,420.684 845.06,423.184 843.5,425.5C 842.685,424.571 841.852,423.571 841,422.5C 840.586,422.957 840.086,423.291 839.5,423.5C 838.38,419.184 836.213,418.518 833,421.5C 832.667,424.5 832.333,427.5 832,430.5C 831.667,430.167 831.333,429.833 831,429.5C 828.223,432.291 826.723,431.625 826.5,427.5C 821.57,427.803 816.737,427.469 812,426.5C 809.988,420.925 811.821,418.091 817.5,418C 819.577,413.267 822.411,409.101 826,405.5C 826.667,404.167 826.667,402.833 826,401.5C 822.543,398.642 818.709,396.308 814.5,394.5C 812.412,397.757 809.578,400.09 806,401.5C 807.609,405.139 810.109,408.305 813.5,411C 808.783,414.822 804.783,414.156 801.5,409C 799.26,408.023 796.927,407.523 794.5,407.5C 794.657,406.127 794.49,404.793 794,403.5C 793.216,407.05 792.383,410.55 791.5,414C 786.816,414.461 782.149,414.295 777.5,413.5C 777.5,410.833 777.5,408.167 777.5,405.5C 778.822,405.33 779.989,405.663 781,406.5C 781.333,403.5 781.667,400.5 782,397.5C 783.205,396.929 784.372,396.262 785.5,395.5C 781.354,393.231 777.021,391.564 772.5,390.5C 768.486,390.666 764.486,390.499 760.5,390C 759.663,388.989 759.33,387.822 759.5,386.5C 765.176,386.666 770.843,386.499 776.5,386C 777.38,384.644 777.714,383.144 777.5,381.5C 781.514,381.666 785.514,381.499 789.5,381C 790.749,378.79 790.582,376.624 789,374.5C 783.183,373.175 783.017,373.842 788.5,376.5C 787.667,376.833 786.833,377.167 786,377.5C 784.123,376.747 782.289,375.914 780.5,375C 779.167,372.176 777.667,372.343 776,375.5C 774.372,374.181 774.539,372.848 776.5,371.5C 773.788,370.772 771.121,369.939 768.5,369C 772.148,368.938 775.815,369.105 779.5,369.5 Z"/></g>
<g><path style="opacity:1" fill="#bfbec9" d="M 554.5,371.5 C 553.152,384.683 550.152,397.35 545.5,409.5C 545.461,402.968 546.461,396.635 548.5,390.5C 550.78,384.269 552.78,377.935 554.5,371.5 Z"/></g>
<g><path style="opacity:1" fill="#7f5231" d="M 818.5,379.5 C 821.054,380.606 823.721,381.439 826.5,382C 827.381,382.708 828.047,383.542 828.5,384.5C 827.833,384.5 827.167,384.5 826.5,384.5C 823.693,383.121 821.026,381.454 818.5,379.5 Z"/></g>
<g><path style="opacity:1" fill="#c5c4cd" d="M 401.5,369.5 C 400.014,374.294 399.181,379.294 399,384.5C 398.414,387.019 397.247,389.019 395.5,390.5C 395.517,388.435 395.85,386.435 396.5,384.5C 396.87,380.767 397.537,377.101 398.5,373.5C 399.143,371.924 400.143,370.59 401.5,369.5 Z"/></g>
<g><path style="opacity:1" fill="#a7a6b3" d="M 232.5,382.5 C 234.964,385.97 235.964,389.97 235.5,394.5C 235.167,394.5 234.833,394.5 234.5,394.5C 233.624,390.538 232.958,386.538 232.5,382.5 Z"/></g>
<g><path style="opacity:1" fill="#3c2634" d="M 836.5,387.5 C 838.199,387.34 839.866,387.506 841.5,388C 845.426,393.429 850.093,397.929 855.5,401.5C 850.286,398.8 845.286,395.634 840.5,392C 838.616,390.951 837.282,389.451 836.5,387.5 Z"/></g>
<g><path style="opacity:1" fill="#908e9e" d="M 615.5,386.5 C 614.878,388.122 613.878,389.455 612.5,390.5C 610.5,391.833 608.5,393.167 606.5,394.5C 608.521,390.807 611.521,388.14 615.5,386.5 Z"/></g>
<g><path style="opacity:1" fill="#f2952b" d="M 772.5,390.5 C 777.021,391.564 781.354,393.231 785.5,395.5C 784.372,396.262 783.205,396.929 782,397.5C 781.667,400.5 781.333,403.5 781,406.5C 779.989,405.663 778.822,405.33 777.5,405.5C 777.5,408.167 777.5,410.833 777.5,413.5C 782.149,414.295 786.816,414.461 791.5,414C 792.383,410.55 793.216,407.05 794,403.5C 794.49,404.793 794.657,406.127 794.5,407.5C 796.927,407.523 799.26,408.023 801.5,409C 804.783,414.156 808.783,414.822 813.5,411C 810.109,408.305 807.609,405.139 806,401.5C 809.578,400.09 812.412,397.757 814.5,394.5C 818.709,396.308 822.543,398.642 826,401.5C 826.667,402.833 826.667,404.167 826,405.5C 822.411,409.101 819.577,413.267 817.5,418C 811.821,418.091 809.988,420.925 812,426.5C 816.737,427.469 821.57,427.803 826.5,427.5C 826.723,431.625 828.223,432.291 831,429.5C 831.333,429.833 831.667,430.167 832,430.5C 832.333,427.5 832.667,424.5 833,421.5C 836.213,418.518 838.38,419.184 839.5,423.5C 840.086,423.291 840.586,422.957 841,422.5C 841.852,423.571 842.685,424.571 843.5,425.5C 843.5,426.5 843.5,427.5 843.5,428.5C 842.5,428.5 841.5,428.5 840.5,428.5C 840.5,430.167 840.5,431.833 840.5,433.5C 839.688,435.945 838.688,438.278 837.5,440.5C 833.839,445.758 830.173,451.092 826.5,456.5C 825.675,457.386 824.675,457.719 823.5,457.5C 822.666,463.01 820.666,468.01 817.5,472.5C 815.926,473.631 814.259,473.798 812.5,473C 811.529,471.519 810.196,470.685 808.5,470.5C 804.691,464.035 799.024,460.368 791.5,459.5C 790.167,459.5 789.5,458.833 789.5,457.5C 784.557,453.672 778.89,451.338 772.5,450.5C 772.167,450.5 771.833,450.5 771.5,450.5C 766.5,449.167 761.5,447.833 756.5,446.5C 751.537,445.372 746.37,444.705 741,444.5C 729.644,444.82 718.477,446.32 707.5,449C 704.593,450.609 701.927,452.442 699.5,454.5C 695.335,457.136 691.002,459.636 686.5,462C 684.051,464.192 681.718,466.359 679.5,468.5C 676.547,469.787 674.214,471.787 672.5,474.5C 670.718,475.72 668.718,476.386 666.5,476.5C 666.574,480.266 665.074,483.266 662,485.5C 660.41,490.892 658.077,495.892 655,500.5C 653.978,506.119 653.145,511.786 652.5,517.5C 651.34,519.875 650.34,522.208 649.5,524.5C 648.265,524.721 647.265,525.388 646.5,526.5C 645.166,524.182 645.832,522.515 648.5,521.5C 647.159,518.159 644.826,515.826 641.5,514.5C 644.167,513.833 646.833,513.167 649.5,512.5C 646.919,510.326 646.919,508.16 649.5,506C 648.737,505.056 647.737,504.556 646.5,504.5C 643.932,505.559 641.765,507.226 640,509.5C 639.667,509.167 639.333,508.833 639,508.5C 637.461,499.859 635.295,491.526 632.5,483.5C 629.552,483.223 626.719,483.556 624,484.5C 622.74,494.761 622.073,505.094 622,515.5C 620.686,516.313 619.519,517.313 618.5,518.5C 617.914,518.291 617.414,517.957 617,517.5C 616.333,506.167 616.333,494.833 617,483.5C 618.356,482.62 619.856,482.286 621.5,482.5C 622.5,477.5 620.5,475.5 615.5,476.5C 613.282,480.412 612.116,484.745 612,489.5C 609.903,490.991 607.57,491.991 605,492.5C 604.667,497.167 604.333,501.833 604,506.5C 603,508.167 602,509.833 601,511.5C 599.365,502.662 599.032,493.662 600,484.5C 604.593,483.217 605.593,480.551 603,476.5C 602.027,478.64 600.527,480.307 598.5,481.5C 597.669,489.145 597.169,496.812 597,504.5C 595.981,505.687 594.814,506.687 593.5,507.5C 592.111,504.913 590.278,502.579 588,500.5C 587.667,503.167 587.333,505.833 587,508.5C 585.417,510.993 583.917,510.826 582.5,508C 583.602,505.599 583.769,503.099 583,500.5C 581.927,501.28 580.76,501.113 579.5,500C 578.167,499.333 578.167,498.667 579.5,498C 578.833,496.667 577.833,495.667 576.5,495C 577.554,492.618 578.221,490.118 578.5,487.5C 577.313,485.802 576.313,483.968 575.5,482C 576.866,477.084 578.199,472.25 579.5,467.5C 580.732,462.8 582.732,458.467 585.5,454.5C 586.659,455.456 587.826,456.456 589,457.5C 589.5,457.333 590,457.167 590.5,457C 592.873,454.36 594.207,451.193 594.5,447.5C 595.415,448.328 596.081,449.328 596.5,450.5C 595.061,452.343 595.228,454.01 597,455.5C 598.783,453.155 599.783,450.488 600,447.5C 603.505,445.74 604.005,443.573 601.5,441C 601.833,440.667 602.167,440.333 602.5,440C 604.198,440.497 605.865,440.33 607.5,439.5C 608.347,437.128 609.681,435.128 611.5,433.5C 612.92,435.22 614.253,437.054 615.5,439C 618.149,438.864 619.815,437.364 620.5,434.5C 621.72,435.711 622.887,435.711 624,434.5C 624.395,432.821 624.228,431.155 623.5,429.5C 625.662,425.519 628.329,422.019 631.5,419C 635.577,416.951 639.911,416.118 644.5,416.5C 644.938,416.435 645.272,416.601 645.5,417C 642.617,419.74 639.284,421.74 635.5,423C 634,424.5 632.5,426 631,427.5C 630.674,430.332 631.174,432.999 632.5,435.5C 634.5,435.5 636.5,435.5 638.5,435.5C 638.286,437.144 638.62,438.644 639.5,440C 642.047,440.067 644.214,440.901 646,442.5C 647.186,440.323 649.019,439.323 651.5,439.5C 651.5,438.167 651.5,436.833 651.5,435.5C 653.167,435.5 654.833,435.5 656.5,435.5C 656.665,439.182 656.499,442.848 656,446.5C 653.804,449.125 650.97,450.125 647.5,449.5C 647.666,454.844 647.499,460.177 647,465.5C 644.281,466.444 641.448,466.777 638.5,466.5C 638.334,470.514 638.501,474.514 639,478.5C 643.413,479.632 647.913,479.799 652.5,479C 656.426,478.42 657.926,476.253 657,472.5C 652.961,470.264 652.461,467.431 655.5,464C 653.419,461.182 653.085,458.182 654.5,455C 656.5,454.333 658.5,454.333 660.5,455C 661.305,456.972 662.639,458.472 664.5,459.5C 665.925,463.846 664.259,466.346 659.5,467C 660.5,468 661.5,469 662.5,470C 663.332,470.688 663.998,470.521 664.5,469.5C 663.289,468.28 663.289,467.113 664.5,466C 666.134,465.506 667.801,465.34 669.5,465.5C 669.67,466.822 669.337,467.989 668.5,469C 669.833,469.667 671.167,469.667 672.5,469C 670.275,466.975 669.941,464.642 671.5,462C 674.832,461.329 675.999,462.496 675,465.5C 675.75,464.874 676.584,464.374 677.5,464C 676.76,462.215 676.093,460.382 675.5,458.5C 675.808,457.692 676.308,457.025 677,456.5C 680.025,457.791 680.359,457.124 678,454.5C 676.938,453.903 675.772,453.57 674.5,453.5C 671.546,455.789 668.212,457.123 664.5,457.5C 663.977,454.972 662.977,452.639 661.5,450.5C 661.68,449.446 662.013,448.446 662.5,447.5C 667.235,445.839 671.568,446.506 675.5,449.5C 679.118,446.575 680.951,447.575 681,452.5C 682.299,448.154 685.299,446.154 690,446.5C 691.658,446.675 692.991,447.342 694,448.5C 694.402,447.128 694.902,445.795 695.5,444.5C 694.064,443.066 692.398,441.9 690.5,441C 684.833,440.333 679.167,440.333 673.5,441C 673,441.5 672.5,442 672,442.5C 667.33,440.662 664.163,437.329 662.5,432.5C 660.604,431.534 658.604,431.201 656.5,431.5C 656.666,426.821 656.499,422.155 656,417.5C 655.667,417.167 655.333,416.833 655,416.5C 653.956,417.623 653.29,418.956 653,420.5C 651.733,418.186 650.566,415.852 649.5,413.5C 649.5,412.5 649.5,411.5 649.5,410.5C 645.244,411.014 641.411,410.014 638,407.5C 635.408,409.569 633.242,408.902 631.5,405.5C 632,405.167 632.5,404.833 633,404.5C 635.718,407.154 638.051,406.821 640,403.5C 640.5,404 641,404.5 641.5,405C 644.882,405.176 648.215,405.676 651.5,406.5C 651.023,407.478 650.357,408.311 649.5,409C 650.5,409.167 651.5,409.333 652.5,409.5C 657.995,408.489 663.328,407.156 668.5,405.5C 672.644,408.544 677.144,409.544 682,408.5C 682.94,406.058 684.106,403.725 685.5,401.5C 686.842,403.005 688.508,403.672 690.5,403.5C 690.081,400.675 691.081,398.509 693.5,397C 699.545,396.991 705.378,396.158 711,394.5C 715.281,396.085 719.781,396.918 724.5,397C 725.38,398.356 725.714,399.856 725.5,401.5C 736.833,401.5 748.167,401.5 759.5,401.5C 759.286,399.856 759.62,398.356 760.5,397C 763.146,396.503 765.813,396.336 768.5,396.5C 768.5,395.167 768.5,393.833 768.5,392.5C 770.483,392.843 771.817,392.176 772.5,390.5 Z"/></g>
<g><path style="opacity:1" fill="#965f34" d="M 690.5,370.5 C 677.528,375.67 664.528,381.17 651.5,387C 642.828,392.598 634.161,398.098 625.5,403.5C 628.204,399.973 631.538,397.14 635.5,395C 644.199,389.986 652.865,384.986 661.5,380C 671.104,376.356 680.771,373.189 690.5,370.5 Z"/></g>
<g><path style="opacity:1" fill="#9996a7" d="M 474.5,393.5 C 477.89,399.651 479.556,406.318 479.5,413.5C 477.253,407.07 475.586,400.404 474.5,393.5 Z"/></g>
<g><path style="opacity:1" fill="#3b3651" d="M 319.5,389.5 C 320.79,390.058 321.623,391.058 322,392.5C 323.939,399.488 325.439,406.488 326.5,413.5C 325.768,412.192 324.934,410.858 324,409.5C 322.363,404.201 321.196,398.868 320.5,393.5C 320.672,392.508 320.338,391.842 319.5,391.5C 319.5,390.833 319.5,390.167 319.5,389.5 Z"/></g>
<g><path style="opacity:1" fill="#3d3951" d="M 612.5,390.5 C 611.933,392.03 611.267,393.53 610.5,395C 606.307,397.455 602.64,400.455 599.5,404C 598.099,404.41 596.766,404.91 595.5,405.5C 595.967,402.703 597.633,401.369 600.5,401.5C 601.054,397.945 603.054,395.612 606.5,394.5C 608.5,393.167 610.5,391.833 612.5,390.5 Z"/></g>
<g><path style="opacity:1" fill="#646077" d="M 234.5,394.5 C 234.833,394.5 235.167,394.5 235.5,394.5C 236.406,397.436 237.072,400.436 237.5,403.5C 239.433,408.643 240.767,413.976 241.5,419.5C 240.768,418.192 239.934,416.858 239,415.5C 237.5,409.477 236,403.477 234.5,397.5C 234.5,396.5 234.5,395.5 234.5,394.5 Z"/></g>
<g><path style="opacity:1" fill="#48445d" d="M 396.5,384.5 C 395.85,386.435 395.517,388.435 395.5,390.5C 391.998,402.205 388.831,414.205 386,426.5C 383.173,431.477 381.673,436.811 381.5,442.5C 380.143,443.59 379.143,444.924 378.5,446.5C 379.148,441.047 380.481,435.881 382.5,431C 382.167,430.667 381.833,430.333 381.5,430C 385.209,422.247 387.376,414.081 388,405.5C 391.875,399.83 393.875,393.497 394,386.5C 394.708,385.619 395.542,384.953 396.5,384.5 Z"/></g>
<g><path style="opacity:1" fill="#bcbbc6" d="M 237.5,403.5 C 238.458,403.953 239.292,404.619 240,405.5C 242.327,412.288 243.494,419.288 243.5,426.5C 241.837,424.562 241.171,422.228 241.5,419.5C 240.767,413.976 239.433,408.643 237.5,403.5 Z"/></g>
<g><path style="opacity:1" fill="#da852e" d="M 826.5,384.5 C 827.167,384.5 827.833,384.5 828.5,384.5C 830.954,386.06 833.62,387.06 836.5,387.5C 837.282,389.451 838.616,390.951 840.5,392C 845.286,395.634 850.286,398.8 855.5,401.5C 858.034,404.422 858.034,407.422 855.5,410.5C 851.503,413.504 849.17,417.504 848.5,422.5C 846.403,426.372 844.069,430.039 841.5,433.5C 841.167,433.5 840.833,433.5 840.5,433.5C 840.5,431.833 840.5,430.167 840.5,428.5C 841.5,428.5 842.5,428.5 843.5,428.5C 843.5,427.5 843.5,426.5 843.5,425.5C 845.06,423.184 846.394,420.684 847.5,418C 847.397,416.439 847.063,414.939 846.5,413.5C 847.737,412.719 848.737,411.719 849.5,410.5C 847.554,408.419 847.554,406.086 849.5,403.5C 850.427,405.113 851.261,406.779 852,408.5C 853.661,405.573 853.161,402.907 850.5,400.5C 846.035,398.578 841.702,396.411 837.5,394C 837.957,393.586 838.291,393.086 838.5,392.5C 834.468,390.814 830.468,389.148 826.5,387.5C 826.5,386.5 826.5,385.5 826.5,384.5 Z"/></g>
<g><path style="opacity:1" fill="#afadbb" d="M 320.5,393.5 C 321.196,398.868 322.363,404.201 324,409.5C 324.934,410.858 325.768,412.192 326.5,413.5C 326.368,416.57 326.701,419.57 327.5,422.5C 325.851,417.78 323.685,413.114 321,408.5C 320.501,403.511 320.334,398.511 320.5,393.5 Z"/></g>
<g><path style="opacity:1" fill="#413c56" d="M 595.5,405.5 C 594.877,408.08 593.71,410.414 592,412.5C 588.011,415.325 584.177,418.325 580.5,421.5C 580.557,420.391 580.89,419.391 581.5,418.5C 585.503,413.542 590.169,409.209 595.5,405.5 Z"/></g>
<g><path style="opacity:1" fill="#f9952b" d="M 649.5,413.5 C 650.566,415.852 651.733,418.186 653,420.5C 653.29,418.956 653.956,417.623 655,416.5C 655.333,416.833 655.667,417.167 656,417.5C 656.499,422.155 656.666,426.821 656.5,431.5C 658.604,431.201 660.604,431.534 662.5,432.5C 664.163,437.329 667.33,440.662 672,442.5C 672.5,442 673,441.5 673.5,441C 679.167,440.333 684.833,440.333 690.5,441C 692.398,441.9 694.064,443.066 695.5,444.5C 694.902,445.795 694.402,447.128 694,448.5C 692.991,447.342 691.658,446.675 690,446.5C 685.299,446.154 682.299,448.154 681,452.5C 680.951,447.575 679.118,446.575 675.5,449.5C 671.568,446.506 667.235,445.839 662.5,447.5C 662.013,448.446 661.68,449.446 661.5,450.5C 662.977,452.639 663.977,454.972 664.5,457.5C 668.212,457.123 671.546,455.789 674.5,453.5C 675.772,453.57 676.938,453.903 678,454.5C 680.359,457.124 680.025,457.791 677,456.5C 676.308,457.025 675.808,457.692 675.5,458.5C 676.093,460.382 676.76,462.215 677.5,464C 676.584,464.374 675.75,464.874 675,465.5C 675.999,462.496 674.832,461.329 671.5,462C 669.941,464.642 670.275,466.975 672.5,469C 671.167,469.667 669.833,469.667 668.5,469C 669.337,467.989 669.67,466.822 669.5,465.5C 667.801,465.34 666.134,465.506 664.5,466C 663.289,467.113 663.289,468.28 664.5,469.5C 663.998,470.521 663.332,470.688 662.5,470C 661.5,469 660.5,468 659.5,467C 664.259,466.346 665.925,463.846 664.5,459.5C 662.639,458.472 661.305,456.972 660.5,455C 658.5,454.333 656.5,454.333 654.5,455C 653.085,458.182 653.419,461.182 655.5,464C 652.461,467.431 652.961,470.264 657,472.5C 657.926,476.253 656.426,478.42 652.5,479C 647.913,479.799 643.413,479.632 639,478.5C 638.501,474.514 638.334,470.514 638.5,466.5C 641.448,466.777 644.281,466.444 647,465.5C 647.499,460.177 647.666,454.844 647.5,449.5C 650.97,450.125 653.804,449.125 656,446.5C 656.499,442.848 656.665,439.182 656.5,435.5C 654.833,435.5 653.167,435.5 651.5,435.5C 651.5,436.833 651.5,438.167 651.5,439.5C 649.019,439.323 647.186,440.323 646,442.5C 644.214,440.901 642.047,440.067 639.5,440C 638.62,438.644 638.286,437.144 638.5,435.5C 636.5,435.5 634.5,435.5 632.5,435.5C 631.174,432.999 630.674,430.332 631,427.5C 632.5,426 634,424.5 635.5,423C 639.284,421.74 642.617,419.74 645.5,417C 645.272,416.601 644.938,416.435 644.5,416.5C 645.659,414.75 647.326,413.75 649.5,413.5 Z"/></g>
<g><path style="opacity:1" fill="#8d5b34" d="M 855.5,410.5 C 853.163,414.508 850.83,418.508 848.5,422.5C 849.17,417.504 851.503,413.504 855.5,410.5 Z"/></g>
<g><path style="opacity:1" fill="#835536" d="M 625.5,403.5 C 619.194,409.14 613.194,415.14 607.5,421.5C 606.167,422.5 604.833,423.5 603.5,424.5C 609.542,416.124 616.876,409.124 625.5,403.5 Z"/></g>
<g><path style="opacity:1" fill="#c9c8d1" d="M 480.5,413.5 C 481.167,415.167 481.833,416.833 482.5,418.5C 482.982,422.873 483.648,427.206 484.5,431.5C 483.069,430.097 481.902,428.431 481,426.5C 480.501,422.179 480.334,417.846 480.5,413.5 Z"/></g>
<g><path style="opacity:1" fill="#85583b" d="M 603.5,424.5 C 602.876,426.754 601.543,428.421 599.5,429.5C 600.136,427.205 601.469,425.539 603.5,424.5 Z"/></g>
<g><path style="opacity:1" fill="#a39faf" d="M 243.5,426.5 C 244.496,426.414 245.329,426.748 246,427.5C 246.435,432.184 246.935,436.851 247.5,441.5C 245.725,436.739 244.391,431.739 243.5,426.5 Z"/></g>
<g><path style="opacity:1" fill="#5c576e" d="M 482.5,418.5 C 484.25,423.615 485.584,428.949 486.5,434.5C 485.833,433.5 485.167,432.5 484.5,431.5C 483.648,427.206 482.982,422.873 482.5,418.5 Z"/></g>
<g><path style="opacity:1" fill="#cbcbd2" d="M 581.5,418.5 C 580.89,419.391 580.557,420.391 580.5,421.5C 578.309,425.206 575.476,428.539 572,431.5C 571.128,434.856 569.628,437.856 567.5,440.5C 565.674,442.147 564.34,444.147 563.5,446.5C 563.5,446.833 563.5,447.167 563.5,447.5C 562.5,448.167 561.5,448.833 560.5,449.5C 563.058,443.42 565.891,437.42 569,431.5C 574.133,427.871 578.3,423.538 581.5,418.5 Z"/></g>
<g><path style="opacity:1" fill="#936134" d="M 599.5,429.5 C 598.241,433.025 596.241,436.025 593.5,438.5C 594.262,434.633 596.262,431.633 599.5,429.5 Z"/></g>
<g><path style="opacity:1" fill="#cf8230" d="M 607.5,421.5 C 605.609,424.58 603.442,427.58 601,430.5C 600.689,432.556 600.189,434.556 599.5,436.5C 595.27,440.011 591.27,443.678 587.5,447.5C 588.277,443.592 590.277,440.592 593.5,438.5C 596.241,436.025 598.241,433.025 599.5,429.5C 601.543,428.421 602.876,426.754 603.5,424.5C 604.833,423.5 606.167,422.5 607.5,421.5 Z"/></g>
<g><path style="opacity:1" fill="#774e35" d="M 840.5,433.5 C 840.833,433.5 841.167,433.5 841.5,433.5C 841.275,436.546 839.942,438.879 837.5,440.5C 838.688,438.278 839.688,435.945 840.5,433.5 Z"/></g>
<g><path style="opacity:1" fill="#c1c0ca" d="M 545.5,409.5 C 543.472,420.08 541.638,430.747 540,441.5C 537.764,447.344 535.597,453.01 533.5,458.5C 533.833,455.833 534.167,453.167 534.5,450.5C 536.99,445.975 538.323,440.975 538.5,435.5C 540.322,426.61 542.655,417.943 545.5,409.5 Z"/></g>
<g><path style="opacity:1" fill="#605c73" d="M 538.5,435.5 C 538.323,440.975 536.99,445.975 534.5,450.5C 535.946,446.037 536.78,441.371 537,436.5C 537.383,435.944 537.883,435.611 538.5,435.5 Z"/></g>
<g><path style="opacity:1" fill="#9492a2" d="M 327.5,422.5 C 328.926,425.976 329.926,429.643 330.5,433.5C 330.368,436.57 330.701,439.57 331.5,442.5C 330.883,442.389 330.383,442.056 330,441.5C 329.767,434.983 328.934,428.649 327.5,422.5 Z"/></g>
<g><path style="opacity:1" fill="#38344e" d="M 330.5,433.5 C 331.974,436.664 333.474,439.997 335,443.5C 335.411,448.519 335.911,453.519 336.5,458.5C 335.153,453.099 333.486,447.766 331.5,442.5C 330.701,439.57 330.368,436.57 330.5,433.5 Z"/></g>
<g><path style="opacity:1" fill="#48455d" d="M 486.5,434.5 C 488.364,438.249 489.697,442.249 490.5,446.5C 489.728,445.306 488.728,444.306 487.5,443.5C 487.296,440.482 486.963,437.482 486.5,434.5 Z"/></g>
<g><path style="opacity:1" fill="#837e93" d="M 381.5,442.5 C 380.962,444.117 380.629,445.784 380.5,447.5C 378.561,452.44 376.895,457.44 375.5,462.5C 376.071,457.075 377.071,451.742 378.5,446.5C 379.143,444.924 380.143,443.59 381.5,442.5 Z"/></g>
<g><path style="opacity:1" fill="#6e6a81" d="M 567.5,440.5 C 567.155,443.198 565.822,445.198 563.5,446.5C 564.34,444.147 565.674,442.147 567.5,440.5 Z"/></g>
<g><path style="opacity:1" fill="#b57734" d="M 756.5,446.5 C 746.652,446.173 736.986,446.506 727.5,447.5C 723.51,447.999 719.51,448.499 715.5,449C 710.469,451.681 705.135,453.514 699.5,454.5C 701.927,452.442 704.593,450.609 707.5,449C 718.477,446.32 729.644,444.82 741,444.5C 746.37,444.705 751.537,445.372 756.5,446.5 Z"/></g>
<g><path style="opacity:1" fill="#858395" d="M 247.5,441.5 C 251.007,446.847 252.674,452.847 252.5,459.5C 252.167,459.5 251.833,459.5 251.5,459.5C 250.167,453.511 248.834,447.511 247.5,441.5 Z"/></g>
<g><path style="opacity:1" fill="#69697d" d="M 563.5,447.5 C 562.702,449.966 561.369,451.966 559.5,453.5C 560.234,452.292 560.567,450.959 560.5,449.5C 561.5,448.833 562.5,448.167 563.5,447.5 Z"/></g>
<g><path style="opacity:1" fill="#624037" d="M 727.5,447.5 C 736.986,446.506 746.652,446.173 756.5,446.5C 761.5,447.833 766.5,449.167 771.5,450.5C 756.978,447.924 742.311,446.924 727.5,447.5 Z"/></g>
<g><path style="opacity:1" fill="#dad9df" d="M 380.5,447.5 C 379.24,455.94 377.74,464.273 376,472.5C 374.626,475.714 373.126,478.714 371.5,481.5C 372.377,475.325 373.71,469.325 375.5,463.5C 375.5,463.167 375.5,462.833 375.5,462.5C 376.895,457.44 378.561,452.44 380.5,447.5 Z"/></g>
<g><path style="opacity:1" fill="#a8a6b4" d="M 487.5,443.5 C 488.728,444.306 489.728,445.306 490.5,446.5C 490.5,447.167 490.5,447.833 490.5,448.5C 490.704,451.518 491.037,454.518 491.5,457.5C 489.549,453.126 488.216,448.46 487.5,443.5 Z"/></g>
<g><path style="opacity:1" fill="#3e2a35" d="M 727.5,447.5 C 724.299,449.26 720.633,450.094 716.5,450C 708.301,453.932 699.968,457.599 691.5,461C 686.227,466.118 680.561,470.618 674.5,474.5C 676.167,472.5 677.833,470.5 679.5,468.5C 681.718,466.359 684.051,464.192 686.5,462C 691.002,459.636 695.335,457.136 699.5,454.5C 705.135,453.514 710.469,451.681 715.5,449C 719.51,448.499 723.51,447.999 727.5,447.5 Z"/></g>
<g><path style="opacity:1" fill="#895a32" d="M 772.5,450.5 C 778.89,451.338 784.557,453.672 789.5,457.5C 784.543,455.903 779.543,454.403 774.5,453C 773.619,452.292 772.953,451.458 772.5,450.5 Z"/></g>
<g><path style="opacity:1" fill="#a26834" d="M 587.5,447.5 C 586.067,449.558 585.4,451.892 585.5,454.5C 582.732,458.467 580.732,462.8 579.5,467.5C 578.5,468.167 577.5,468.833 576.5,469.5C 579.149,462.789 581.982,456.122 585,449.5C 585.708,448.619 586.542,447.953 587.5,447.5 Z"/></g>
<g><path style="opacity:1" fill="#a76932" d="M 837.5,440.5 C 834.832,445.51 832.165,450.51 829.5,455.5C 827.336,457.822 825.669,460.489 824.5,463.5C 822.165,466.531 820.165,469.865 818.5,473.5C 814.179,475.419 810.846,474.419 808.5,470.5C 810.196,470.685 811.529,471.519 812.5,473C 814.259,473.798 815.926,473.631 817.5,472.5C 820.666,468.01 822.666,463.01 823.5,457.5C 824.675,457.719 825.675,457.386 826.5,456.5C 830.173,451.092 833.839,445.758 837.5,440.5 Z"/></g>
<g><path style="opacity:1" fill="#69657c" d="M 490.5,448.5 C 491.788,454.521 493.621,460.521 496,466.5C 496.497,469.146 496.664,471.813 496.5,474.5C 495.5,471.833 494.5,469.167 493.5,466.5C 492.539,463.574 491.873,460.574 491.5,457.5C 491.037,454.518 490.704,451.518 490.5,448.5 Z"/></g>
<g><path style="opacity:1" fill="#422a36" d="M 829.5,455.5 C 829.853,459.459 828.187,462.126 824.5,463.5C 825.669,460.489 827.336,457.822 829.5,455.5 Z"/></g>
<g><path style="opacity:1" fill="#a86c31" d="M 791.5,459.5 C 799.024,460.368 804.691,464.035 808.5,470.5C 802.962,466.569 797.296,462.902 791.5,459.5 Z"/></g>
<g><path style="opacity:1" fill="#777489" d="M 252.5,459.5 C 253.117,459.611 253.617,459.944 254,460.5C 254.495,462.473 254.662,464.473 254.5,466.5C 253.593,464.343 252.927,462.01 252.5,459.5 Z"/></g>
<g><path style="opacity:1" fill="#433f59" d="M 559.5,453.5 C 558.977,457.873 558.143,462.206 557,466.5C 555.723,468.747 554.223,470.747 552.5,472.5C 553.371,469.888 554.037,467.221 554.5,464.5C 555.724,460.541 557.391,456.874 559.5,453.5 Z"/></g>
<g><path style="opacity:1" fill="#736f84" d="M 375.5,463.5 C 373.71,469.325 372.377,475.325 371.5,481.5C 371.5,481.833 371.5,482.167 371.5,482.5C 370.833,482.833 370.167,483.167 369.5,483.5C 370.367,477.436 371.534,471.436 373,465.5C 373.708,464.619 374.542,463.953 375.5,463.5 Z"/></g>
<g><path style="opacity:1" fill="#906232" d="M 679.5,468.5 C 677.833,470.5 676.167,472.5 674.5,474.5C 673.833,475.833 672.833,476.833 671.5,477.5C 671.557,476.391 671.89,475.391 672.5,474.5C 674.214,471.787 676.547,469.787 679.5,468.5 Z"/></g>
<g><path style="opacity:1" fill="#c2c0ca" d="M 554.5,464.5 C 554.037,467.221 553.371,469.888 552.5,472.5C 550.956,476.899 549.29,481.232 547.5,485.5C 547.335,481.818 547.501,478.152 548,474.5C 550.889,471.482 553.056,468.148 554.5,464.5 Z"/></g>
<g><path style="opacity:1" fill="#996232" d="M 576.5,469.5 C 576.663,471.857 576.497,474.19 576,476.5C 574.254,478.708 573.087,481.208 572.5,484C 571.356,491.744 569.69,499.244 567.5,506.5C 568.197,497.377 569.697,488.377 572,479.5C 573.813,476.215 575.313,472.882 576.5,469.5 Z"/></g>
<g><path style="opacity:1" fill="#f9952b" d="M 649.5,524.5 C 649.557,525.609 649.89,526.609 650.5,527.5C 649.005,527.415 648.005,528.081 647.5,529.5C 649.52,531.599 649.854,533.933 648.5,536.5C 646.36,537.473 644.693,538.973 643.5,541C 639.514,541.716 638.848,540.716 641.5,538C 640.921,536.086 639.921,534.419 638.5,533C 639.833,531.667 639.833,530.333 638.5,529C 638.95,527.715 639.617,526.548 640.5,525.5C 639.515,523.902 639.349,522.235 640,520.5C 640.654,521.696 641.154,521.696 641.5,520.5C 639.995,519.158 639.328,517.492 639.5,515.5C 634.555,514.311 631.222,515.977 629.5,520.5C 630.163,523.806 630.663,527.139 631,530.5C 633.252,531.907 634.418,533.907 634.5,536.5C 633.816,543.324 632.482,549.991 630.5,556.5C 631.601,560.591 634.267,562.258 638.5,561.5C 638.33,562.822 638.663,563.989 639.5,565C 644.32,565.538 648.987,566.705 653.5,568.5C 641.235,570.932 636.402,578.265 639,590.5C 640.319,592.487 642.152,593.654 644.5,594C 646.547,598.056 649.381,601.556 653,604.5C 653.333,601.167 653.667,597.833 654,594.5C 656.589,591.499 659.422,591.666 662.5,595C 660.584,600.012 661.584,604.346 665.5,608C 668.636,609.041 671.136,608.207 673,605.5C 673.617,604.551 673.451,603.718 672.5,603C 675.965,602.066 676.298,600.566 673.5,598.5C 674.868,597.406 676.035,597.74 677,599.5C 679.715,598.335 682.048,599.002 684,601.5C 684.414,601.043 684.914,600.709 685.5,600.5C 688.556,602.289 691.889,602.956 695.5,602.5C 695.357,604.262 695.691,605.929 696.5,607.5C 694.219,611.569 692.885,611.236 692.5,606.5C 689.15,606.335 685.817,606.502 682.5,607C 679.945,609.558 677.112,611.725 674,613.5C 673.517,614.448 673.351,615.448 673.5,616.5C 671.278,616.822 669.444,616.155 668,614.5C 663.333,617.833 663.333,621.167 668,624.5C 670.564,622.923 673.397,621.923 676.5,621.5C 677.167,627.167 677.833,632.833 678.5,638.5C 681.115,640.897 683.115,643.73 684.5,647C 686.441,647.304 688.107,648.137 689.5,649.5C 690.308,649.192 690.975,648.692 691.5,648C 698.048,648.035 704.381,647.202 710.5,645.5C 712.334,646.754 714.334,647.421 716.5,647.5C 716.328,649.492 716.995,651.158 718.5,652.5C 712.862,653.33 707.196,653.83 701.5,654C 698.141,656.034 697.808,658.368 700.5,661C 709.171,661.344 717.838,661.178 726.5,660.5C 726.297,662.39 726.963,663.89 728.5,665C 733,665.167 737.5,665.333 742,665.5C 746.919,665.468 751.586,664.801 756,663.5C 757.298,664.56 758.465,665.726 759.5,667C 759.167,667.5 758.833,668 758.5,668.5C 754.701,669.857 751.034,671.524 747.5,673.5C 739.883,672.367 732.216,672.2 724.5,673C 723.975,673.692 723.308,674.192 722.5,674.5C 717.846,672.922 717.513,670.922 721.5,668.5C 721.291,667.914 720.957,667.414 720.5,667C 716.304,666.105 712.137,665.272 708,664.5C 705.906,664.536 703.906,664.869 702,665.5C 701.311,668.329 702.478,669.996 705.5,670.5C 700.623,672.042 695.623,672.709 690.5,672.5C 691.335,666.817 689.335,665.317 684.5,668C 678.833,668.333 673.167,668.667 667.5,669C 664.664,671.584 661.331,672.751 657.5,672.5C 657.047,671.542 656.381,670.708 655.5,670C 658.5,668.333 661.5,666.667 664.5,665C 667.474,657.149 664.807,653.316 656.5,653.5C 656.5,648.5 656.5,643.5 656.5,638.5C 654.833,638.5 653.167,638.5 651.5,638.5C 651.5,644.167 651.5,649.833 651.5,655.5C 648.915,655.432 646.582,654.932 644.5,654C 642.875,654.853 642.542,655.853 643.5,657C 642.529,658.204 641.529,658.704 640.5,658.5C 641.833,659.62 642.333,660.953 642,662.5C 638.25,660.459 636.25,657.459 636,653.5C 637.011,654.337 638.178,654.67 639.5,654.5C 639.5,652.167 639.5,649.833 639.5,647.5C 638.5,647.5 637.5,647.5 636.5,647.5C 636.657,648.873 636.49,650.207 636,651.5C 635.269,649.101 634.102,646.935 632.5,645C 634.107,645.019 635.774,645.185 637.5,645.5C 637.627,643.085 637.793,640.751 638,638.5C 633.617,640.058 630.784,638.558 629.5,634C 627.866,633.506 626.199,633.34 624.5,633.5C 623.975,629.477 621.641,627.31 617.5,627C 616.44,625.702 615.274,624.535 614,623.5C 612.668,625.936 611.501,625.936 610.5,623.5C 614.155,619.701 616.988,615.367 619,610.5C 618.981,607.756 618.314,605.089 617,602.5C 611.833,598.667 606.667,594.833 601.5,591C 597.638,590.355 593.804,590.521 590,591.5C 588.373,591.375 586.873,590.875 585.5,590C 586.167,589.667 586.833,589.333 587.5,589C 585.484,587.972 584.484,586.305 584.5,584C 585.567,571.838 587.234,572.004 589.5,584.5C 591.484,584.383 593.15,585.05 594.5,586.5C 595.499,575.186 595.832,563.853 595.5,552.5C 594.022,552.762 592.689,552.429 591.5,551.5C 593.622,549.549 595.122,547.215 596,544.5C 598.094,542.473 600.427,540.806 603,539.5C 604.188,540.563 604.688,541.897 604.5,543.5C 610.212,543.313 615.879,543.646 621.5,544.5C 621.5,547.167 621.5,549.833 621.5,552.5C 622.5,552.5 623.5,552.5 624.5,552.5C 624.421,547.484 625.587,542.817 628,538.5C 628.667,535.5 628.667,532.5 628,529.5C 620.253,528.518 612.42,528.185 604.5,528.5C 604.789,524.894 604.456,521.394 603.5,518C 598.913,517.201 594.413,517.368 590,518.5C 589.667,528.833 589.333,539.167 589,549.5C 587.736,551.607 585.903,552.607 583.5,552.5C 582.896,546.886 582.896,541.219 583.5,535.5C 584.822,535.67 585.989,535.337 587,534.5C 587.667,530.167 587.667,525.833 587,521.5C 585.5,519.833 584,518.167 582.5,516.5C 581.99,511.856 580.157,507.523 577,503.5C 574.944,508.233 573.777,513.233 573.5,518.5C 572.5,518.5 571.5,518.5 570.5,518.5C 570.59,521.152 569.924,523.485 568.5,525.5C 569.361,513.765 571.028,502.099 573.5,490.5C 575.029,489.237 576.695,488.237 578.5,487.5C 578.221,490.118 577.554,492.618 576.5,495C 577.833,495.667 578.833,496.667 579.5,498C 578.167,498.667 578.167,499.333 579.5,500C 580.76,501.113 581.927,501.28 583,500.5C 583.769,503.099 583.602,505.599 582.5,508C 583.917,510.826 585.417,510.993 587,508.5C 587.333,505.833 587.667,503.167 588,500.5C 590.278,502.579 592.111,504.913 593.5,507.5C 594.814,506.687 595.981,505.687 597,504.5C 597.169,496.812 597.669,489.145 598.5,481.5C 600.527,480.307 602.027,478.64 603,476.5C 605.593,480.551 604.593,483.217 600,484.5C 599.032,493.662 599.365,502.662 601,511.5C 602,509.833 603,508.167 604,506.5C 604.333,501.833 604.667,497.167 605,492.5C 607.57,491.991 609.903,490.991 612,489.5C 612.116,484.745 613.282,480.412 615.5,476.5C 620.5,475.5 622.5,477.5 621.5,482.5C 619.856,482.286 618.356,482.62 617,483.5C 616.333,494.833 616.333,506.167 617,517.5C 617.414,517.957 617.914,518.291 618.5,518.5C 619.519,517.313 620.686,516.313 622,515.5C 622.073,505.094 622.74,494.761 624,484.5C 626.719,483.556 629.552,483.223 632.5,483.5C 635.295,491.526 637.461,499.859 639,508.5C 639.333,508.833 639.667,509.167 640,509.5C 641.765,507.226 643.932,505.559 646.5,504.5C 647.737,504.556 648.737,505.056 649.5,506C 646.919,508.16 646.919,510.326 649.5,512.5C 646.833,513.167 644.167,513.833 641.5,514.5C 644.826,515.826 647.159,518.159 648.5,521.5C 645.832,522.515 645.166,524.182 646.5,526.5C 647.265,525.388 648.265,524.721 649.5,524.5 Z"/></g>
<g><path style="opacity:1" fill="#56516b" d="M 337.5,463.5 C 338.222,463.918 338.722,464.584 339,465.5C 339.363,470.951 340.196,476.284 341.5,481.5C 338.939,475.964 337.606,469.964 337.5,463.5 Z"/></g>
<g><path style="opacity:1" fill="#d0cfd6" d="M 331.5,442.5 C 333.486,447.766 335.153,453.099 336.5,458.5C 336.216,460.415 336.549,462.081 337.5,463.5C 337.606,469.964 338.939,475.964 341.5,481.5C 341.992,486.324 342.659,490.99 343.5,495.5C 343.893,497.284 344.559,498.95 345.5,500.5C 347.039,505.346 347.706,510.346 347.5,515.5C 346.061,511.032 344.894,506.365 344,501.5C 343.586,501.043 343.086,500.709 342.5,500.5C 341.671,495.533 341.171,490.533 341,485.5C 339.37,483.769 338.203,481.769 337.5,479.5C 334.606,467.293 332.606,454.96 331.5,442.5 Z"/></g>
<g><path style="opacity:1" fill="#dd872d" d="M 579.5,467.5 C 578.199,472.25 576.866,477.084 575.5,482C 576.313,483.968 577.313,485.802 578.5,487.5C 576.695,488.237 575.029,489.237 573.5,490.5C 571.028,502.099 569.361,513.765 568.5,525.5C 568.5,537.167 568.5,548.833 568.5,560.5C 567.523,557.713 567.19,554.713 567.5,551.5C 567.5,536.833 567.5,522.167 567.5,507.5C 567.5,507.167 567.5,506.833 567.5,506.5C 569.69,499.244 571.356,491.744 572.5,484C 573.087,481.208 574.254,478.708 576,476.5C 576.497,474.19 576.663,471.857 576.5,469.5C 577.5,468.833 578.5,468.167 579.5,467.5 Z"/></g>
<g><path style="opacity:1" fill="#514d65" d="M 498.5,478.5 C 501.171,483.747 502.838,489.414 503.5,495.5C 499.579,490.603 497.912,484.936 498.5,478.5 Z"/></g>
<g><path style="opacity:1" fill="#7e7a8f" d="M 256.5,475.5 C 257.458,475.953 258.292,476.619 259,477.5C 259.455,480.854 259.955,484.187 260.5,487.5C 258.706,483.878 257.373,479.878 256.5,475.5 Z"/></g>
<g><path style="opacity:1" fill="#b5b2be" d="M 371.5,482.5 C 371.188,487.449 369.521,491.783 366.5,495.5C 367.524,491.405 368.524,487.405 369.5,483.5C 370.167,483.167 370.833,482.833 371.5,482.5 Z"/></g>
<g><path style="opacity:1" fill="#36334d" d="M 251.5,459.5 C 251.833,459.5 252.167,459.5 252.5,459.5C 252.927,462.01 253.593,464.343 254.5,466.5C 256.126,469.246 256.793,472.246 256.5,475.5C 257.373,479.878 258.706,483.878 260.5,487.5C 261.548,492.488 262.714,497.488 264,502.5C 266.906,508.085 268.406,514.085 268.5,520.5C 265.406,510.584 261.906,500.584 258,490.5C 255.75,480.233 253.584,469.9 251.5,459.5 Z"/></g>
<g><path style="opacity:1" fill="#6b667e" d="M 341.5,481.5 C 342.117,481.611 342.617,481.944 343,482.5C 343.499,486.821 343.666,491.154 343.5,495.5C 342.659,490.99 341.992,486.324 341.5,481.5 Z"/></g>
<g><path style="opacity:1" fill="#5c5870" d="M 528.5,480.5 C 527.708,484.518 526.541,488.518 525,492.5C 524.502,495.817 524.335,499.15 524.5,502.5C 523.069,503.78 522.402,505.447 522.5,507.5C 522.167,507.5 521.833,507.5 521.5,507.5C 522.897,501.682 523.731,495.682 524,489.5C 525.417,486.387 526.917,483.387 528.5,480.5 Z"/></g>
<g><path style="opacity:1" fill="#583937" d="M 670.5,478.5 C 668.418,483 666.084,487.333 663.5,491.5C 663.819,487.864 664.985,484.531 667,481.5C 667.759,479.937 668.926,478.937 670.5,478.5 Z"/></g>
<g><path style="opacity:1" fill="#cbcad3" d="M 493.5,466.5 C 494.5,469.167 495.5,471.833 496.5,474.5C 497.674,475.514 498.34,476.847 498.5,478.5C 497.912,484.936 499.579,490.603 503.5,495.5C 503.5,496.833 503.5,498.167 503.5,499.5C 503.993,501.806 504.326,504.139 504.5,506.5C 503.883,506.389 503.383,506.056 503,505.5C 502.344,500.181 500.844,495.181 498.5,490.5C 497.675,486.878 497.175,483.211 497,479.5C 496.667,480.167 496.333,480.833 496,481.5C 493.858,476.789 493.024,471.789 493.5,466.5 Z"/></g>
<g><path style="opacity:1" fill="#c2c0cb" d="M 260.5,487.5 C 261.447,490.934 263.78,492.767 267.5,493C 265.496,495.841 264.996,499.007 266,502.5C 268.154,509.725 269.987,517.059 271.5,524.5C 271.167,524.5 270.833,524.5 270.5,524.5C 270.011,523.005 269.345,521.671 268.5,520.5C 268.406,514.085 266.906,508.085 264,502.5C 262.714,497.488 261.548,492.488 260.5,487.5 Z"/></g>
<g><path style="opacity:1" fill="#9897a6" d="M 547.5,486.5 C 546.647,493.177 545.647,499.844 544.5,506.5C 544.167,506.5 543.833,506.5 543.5,506.5C 543.399,500.91 544.066,495.41 545.5,490C 545.387,488.301 546.053,487.134 547.5,486.5 Z"/></g>
<g><path style="opacity:1" fill="#b9b8c4" d="M 533.5,460.5 C 530.926,472.752 528.76,485.085 527,497.5C 526.015,499.175 525.181,500.842 524.5,502.5C 524.335,499.15 524.502,495.817 525,492.5C 526.541,488.518 527.708,484.518 528.5,480.5C 528.335,477.482 528.502,474.482 529,471.5C 529.874,467.532 531.374,463.865 533.5,460.5 Z"/></g>
<g><path style="opacity:1" fill="#7b4e37" d="M 660.5,495.5 C 660.88,497.698 660.213,499.365 658.5,500.5C 658.12,498.302 658.787,496.635 660.5,495.5 Z"/></g>
<g><path style="opacity:1" fill="#f2942b" d="M 657.5,672.5 C 653.307,670.575 648.974,668.908 644.5,667.5C 642.367,665.667 640.367,663.667 638.5,661.5C 637.311,660.571 635.978,660.238 634.5,660.5C 634.167,659.833 633.833,659.167 633.5,658.5C 632.137,655.402 629.803,653.735 626.5,653.5C 625.765,647.103 622.098,643.77 615.5,643.5C 612.289,639.794 609.289,635.961 606.5,632C 604.008,630.39 601.341,629.224 598.5,628.5C 596.527,625.887 595.027,622.887 594,619.5C 592.67,618.418 591.17,617.751 589.5,617.5C 589.5,617.167 589.5,616.833 589.5,616.5C 586.572,613.106 584.572,609.106 583.5,604.5C 582.255,601.652 581.255,598.652 580.5,595.5C 579.14,594.82 577.807,594.153 576.5,593.5C 576.323,589.292 574.99,585.626 572.5,582.5C 572.666,578.486 572.499,574.486 572,570.5C 571.272,567.813 570.105,565.48 568.5,563.5C 568.5,562.5 568.5,561.5 568.5,560.5C 568.5,548.833 568.5,537.167 568.5,525.5C 569.924,523.485 570.59,521.152 570.5,518.5C 571.5,518.5 572.5,518.5 573.5,518.5C 573.777,513.233 574.944,508.233 577,503.5C 580.157,507.523 581.99,511.856 582.5,516.5C 584,518.167 585.5,519.833 587,521.5C 587.667,525.833 587.667,530.167 587,534.5C 585.989,535.337 584.822,535.67 583.5,535.5C 582.896,541.219 582.896,546.886 583.5,552.5C 585.903,552.607 587.736,551.607 589,549.5C 589.333,539.167 589.667,528.833 590,518.5C 594.413,517.368 598.913,517.201 603.5,518C 604.456,521.394 604.789,524.894 604.5,528.5C 612.42,528.185 620.253,528.518 628,529.5C 628.667,532.5 628.667,535.5 628,538.5C 625.587,542.817 624.421,547.484 624.5,552.5C 623.5,552.5 622.5,552.5 621.5,552.5C 621.5,549.833 621.5,547.167 621.5,544.5C 615.879,543.646 610.212,543.313 604.5,543.5C 604.688,541.897 604.188,540.563 603,539.5C 600.427,540.806 598.094,542.473 596,544.5C 595.122,547.215 593.622,549.549 591.5,551.5C 592.689,552.429 594.022,552.762 595.5,552.5C 595.832,563.853 595.499,575.186 594.5,586.5C 593.15,585.05 591.484,584.383 589.5,584.5C 587.234,572.004 585.567,571.838 584.5,584C 584.484,586.305 585.484,587.972 587.5,589C 586.833,589.333 586.167,589.667 585.5,590C 586.873,590.875 588.373,591.375 590,591.5C 593.804,590.521 597.638,590.355 601.5,591C 606.667,594.833 611.833,598.667 617,602.5C 618.314,605.089 618.981,607.756 619,610.5C 616.988,615.367 614.155,619.701 610.5,623.5C 611.501,625.936 612.668,625.936 614,623.5C 615.274,624.535 616.44,625.702 617.5,627C 621.641,627.31 623.975,629.477 624.5,633.5C 626.199,633.34 627.866,633.506 629.5,634C 630.784,638.558 633.617,640.058 638,638.5C 637.793,640.751 637.627,643.085 637.5,645.5C 635.774,645.185 634.107,645.019 632.5,645C 634.102,646.935 635.269,649.101 636,651.5C 636.49,650.207 636.657,648.873 636.5,647.5C 637.5,647.5 638.5,647.5 639.5,647.5C 639.5,649.833 639.5,652.167 639.5,654.5C 638.178,654.67 637.011,654.337 636,653.5C 636.25,657.459 638.25,660.459 642,662.5C 642.333,660.953 641.833,659.62 640.5,658.5C 641.529,658.704 642.529,658.204 643.5,657C 642.542,655.853 642.875,654.853 644.5,654C 646.582,654.932 648.915,655.432 651.5,655.5C 651.5,649.833 651.5,644.167 651.5,638.5C 653.167,638.5 654.833,638.5 656.5,638.5C 656.5,643.5 656.5,648.5 656.5,653.5C 664.807,653.316 667.474,657.149 664.5,665C 661.5,666.667 658.5,668.333 655.5,670C 656.381,670.708 657.047,671.542 657.5,672.5 Z"/></g>
<g><path style="opacity:1" fill="#664537" d="M 658.5,500.5 C 657.246,506.89 655.913,513.223 654.5,519.5C 654.506,514.785 655.006,510.118 656,505.5C 656.374,503.509 657.207,501.842 658.5,500.5 Z"/></g>
<g><path style="opacity:1" fill="#605c74" d="M 366.5,495.5 C 366.152,499.258 365.485,502.924 364.5,506.5C 363.143,507.59 362.143,508.924 361.5,510.5C 362.411,505.165 364.078,500.165 366.5,495.5 Z"/></g>
<g><path style="opacity:1" fill="#9997a7" d="M 434.5,517.5 C 433.735,516.34 432.735,515.34 431.5,514.5C 430.065,515.947 429.065,517.614 428.5,519.5C 428.704,516.482 429.037,513.482 429.5,510.5C 433.803,510.735 435.47,513.069 434.5,517.5 Z"/></g>
<g><path style="opacity:1" fill="#6f6c82" d="M 503.5,499.5 C 504.117,499.611 504.617,499.944 505,500.5C 505.425,505.007 506.258,509.341 507.5,513.5C 507.167,513.5 506.833,513.5 506.5,513.5C 506.6,510.892 505.933,508.558 504.5,506.5C 504.326,504.139 503.993,501.806 503.5,499.5 Z"/></g>
<g><path style="opacity:1" fill="#36334c" d="M 345.5,500.5 C 347.34,503.302 349.007,506.302 350.5,509.5C 350.013,510.446 349.68,511.446 349.5,512.5C 351.422,517.68 352.755,523.013 353.5,528.5C 354.183,528.863 354.85,529.196 355.5,529.5C 355.66,531.199 355.494,532.866 355,534.5C 354.623,533.058 353.79,532.058 352.5,531.5C 351.839,528.213 351.339,524.88 351,521.5C 350.414,518.981 349.247,516.981 347.5,515.5C 347.706,510.346 347.039,505.346 345.5,500.5 Z"/></g>
<g><path style="opacity:1" fill="#9896a6" d="M 364.5,506.5 C 363.131,510.933 361.797,515.267 360.5,519.5C 360.508,516.455 360.841,513.455 361.5,510.5C 362.143,508.924 363.143,507.59 364.5,506.5 Z"/></g>
<g><path style="opacity:1" fill="#5a5870" d="M 521.5,507.5 C 520.99,510.983 520.323,514.316 519.5,517.5C 519.335,514.482 519.502,511.482 520,508.5C 520.383,507.944 520.883,507.611 521.5,507.5 Z"/></g>
<g><path style="opacity:1" fill="#292441" d="M 434.5,517.5 C 434.808,521.36 435.475,525.026 436.5,528.5C 436.833,528.5 437.167,528.5 437.5,528.5C 437.113,532.444 437.78,536.111 439.5,539.5C 437.381,538.014 435.881,536.014 435,533.5C 433.422,529.339 432.255,525.006 431.5,520.5C 429.28,524.492 428.114,528.826 428,533.5C 426.499,536.286 424.999,538.953 423.5,541.5C 423.424,537.616 424.09,533.95 425.5,530.5C 426.368,526.686 427.368,523.019 428.5,519.5C 429.065,517.614 430.065,515.947 431.5,514.5C 432.735,515.34 433.735,516.34 434.5,517.5 Z"/></g>
<g><path style="opacity:1" fill="#cc8230" d="M 672.5,474.5 C 671.89,475.391 671.557,476.391 671.5,477.5C 671.5,478.167 671.167,478.5 670.5,478.5C 668.926,478.937 667.759,479.937 667,481.5C 664.985,484.531 663.819,487.864 663.5,491.5C 662.026,492.436 661.026,493.77 660.5,495.5C 658.787,496.635 658.12,498.302 658.5,500.5C 657.207,501.842 656.374,503.509 656,505.5C 655.006,510.118 654.506,514.785 654.5,519.5C 653.191,526.068 653.191,532.734 654.5,539.5C 654.5,542.167 654.5,544.833 654.5,547.5C 652.309,541.21 650.975,534.544 650.5,527.5C 649.89,526.609 649.557,525.609 649.5,524.5C 650.34,522.208 651.34,519.875 652.5,517.5C 653.145,511.786 653.978,506.119 655,500.5C 658.077,495.892 660.41,490.892 662,485.5C 665.074,483.266 666.574,480.266 666.5,476.5C 668.718,476.386 670.718,475.72 672.5,474.5 Z"/></g>
<g><path style="opacity:1" fill="#b4b3be" d="M 521.5,507.5 C 521.833,507.5 522.167,507.5 522.5,507.5C 521.88,516.618 519.88,525.285 516.5,533.5C 516.629,531.784 516.962,530.117 517.5,528.5C 517.87,524.767 518.537,521.101 519.5,517.5C 520.323,514.316 520.99,510.983 521.5,507.5 Z"/></g>
<g><path style="opacity:1" fill="#807f91" d="M 434.5,517.5 C 436.217,520.845 436.884,524.511 436.5,528.5C 435.475,525.026 434.808,521.36 434.5,517.5 Z"/></g>
<g><path style="opacity:1" fill="#48465e" d="M 270.5,524.5 C 270.833,524.5 271.167,524.5 271.5,524.5C 271.869,528.894 272.535,533.227 273.5,537.5C 271.124,533.595 270.124,529.261 270.5,524.5 Z"/></g>
<g><path style="opacity:1" fill="#625d74" d="M 543.5,506.5 C 543.833,506.5 544.167,506.5 544.5,506.5C 543.063,516.245 542.396,526.079 542.5,536C 543.179,551.05 544.845,565.883 547.5,580.5C 546.022,574.918 544.689,569.251 543.5,563.5C 540.838,544.594 540.838,525.594 543.5,506.5 Z"/></g>
<g><path style="opacity:1" fill="#6e6980" d="M 359.5,519.5 C 358.862,525.674 357.695,531.674 356,537.5C 355.586,537.957 355.086,538.291 354.5,538.5C 353.056,536.392 352.39,534.059 352.5,531.5C 353.79,532.058 354.623,533.058 355,534.5C 355.494,532.866 355.66,531.199 355.5,529.5C 356.968,526.722 357.801,523.722 358,520.5C 358.383,519.944 358.883,519.611 359.5,519.5 Z"/></g>
<g><path style="opacity:1" fill="#706c82" d="M 511.5,526.5 C 512.247,529.15 513.247,531.816 514.5,534.5C 515.011,532.116 516.011,530.116 517.5,528.5C 516.962,530.117 516.629,531.784 516.5,533.5C 516.5,534.167 516.5,534.833 516.5,535.5C 515.312,536.684 514.145,536.684 513,535.5C 511.851,532.607 511.351,529.607 511.5,526.5 Z"/></g>
<g><path style="opacity:1" fill="#bbbac5" d="M 543.5,506.5 C 540.838,525.594 540.838,544.594 543.5,563.5C 542.531,561.337 541.698,559.004 541,556.5C 540.167,540.156 540.334,523.823 541.5,507.5C 542.183,507.137 542.85,506.804 543.5,506.5 Z"/></g>
<g><path style="opacity:1" fill="#9e6734" d="M 567.5,507.5 C 567.5,522.167 567.5,536.833 567.5,551.5C 567.167,551.5 566.833,551.5 566.5,551.5C 565.505,540.346 565.172,529.012 565.5,517.5C 565.159,513.84 565.825,510.507 567.5,507.5 Z"/></g>
<g><path style="opacity:1" fill="#c5c3cd" d="M 506.5,513.5 C 506.833,513.5 507.167,513.5 507.5,513.5C 508.376,518.011 509.709,522.344 511.5,526.5C 511.351,529.607 511.851,532.607 513,535.5C 514.145,536.684 515.312,536.684 516.5,535.5C 516.5,536.833 516.5,538.167 516.5,539.5C 514.738,539.643 513.071,539.309 511.5,538.5C 509.512,530.239 507.845,521.905 506.5,513.5 Z"/></g>
<g><path style="opacity:1" fill="#afafbc" d="M 271.5,524.5 C 272.151,525.091 272.818,525.757 273.5,526.5C 275.151,533.086 276.151,539.752 276.5,546.5C 275.954,543.353 274.954,540.353 273.5,537.5C 272.535,533.227 271.869,528.894 271.5,524.5 Z"/></g>
<g><path style="opacity:1" fill="#7a513b" d="M 654.5,539.5 C 655.889,544.269 656.556,549.269 656.5,554.5C 656.167,554.5 655.833,554.5 655.5,554.5C 655.702,552.05 655.369,549.717 654.5,547.5C 654.5,544.833 654.5,542.167 654.5,539.5 Z"/></g>
<g><path style="opacity:1" fill="#3a2734" d="M 654.5,519.5 C 654.334,524.179 654.501,528.845 655,533.5C 656.487,534.253 656.654,535.086 655.5,536C 657.128,540.983 657.961,546.15 658,551.5C 660.307,559.606 663.474,567.273 667.5,574.5C 670.248,574.402 670.914,575.402 669.5,577.5C 664.971,573.765 661.971,569.098 660.5,563.5C 660.657,562.127 660.49,560.793 660,559.5C 659.098,557.569 657.931,555.903 656.5,554.5C 656.556,549.269 655.889,544.269 654.5,539.5C 653.191,532.734 653.191,526.068 654.5,519.5 Z"/></g>
<g><path style="opacity:1" fill="#9795a6" d="M 437.5,528.5 C 438.342,533.181 439.509,537.847 441,542.5C 445.787,553.563 448.953,565.23 450.5,577.5C 449.833,576.833 449.167,576.167 448.5,575.5C 447.328,567.808 445.828,560.142 444,552.5C 443.139,549.949 441.972,547.616 440.5,545.5C 439.534,543.604 439.201,541.604 439.5,539.5C 437.78,536.111 437.113,532.444 437.5,528.5 Z"/></g>
<g><path style="opacity:1" fill="#716d83" d="M 425.5,530.5 C 424.09,533.95 423.424,537.616 423.5,541.5C 423.673,544.983 422.673,547.983 420.5,550.5C 420.4,547.892 421.067,545.558 422.5,543.5C 421.839,538.607 422.839,534.274 425.5,530.5 Z"/></g>
<g><path style="opacity:1" fill="#7c5033" d="M 656.5,554.5 C 657.931,555.903 659.098,557.569 660,559.5C 660.49,560.793 660.657,562.127 660.5,563.5C 658.416,560.947 657.083,557.947 656.5,554.5 Z"/></g>
<g><path style="opacity:1" fill="#b1b0bd" d="M 276.5,546.5 C 277.885,547.574 279.051,548.907 280,550.5C 283.06,561.481 285.56,572.481 287.5,583.5C 286.768,582.192 285.934,580.858 285,579.5C 284.628,575.682 283.794,572.015 282.5,568.5C 281.253,564.285 280.42,559.952 280,555.5C 279.617,554.944 279.117,554.611 278.5,554.5C 278.416,551.673 277.75,549.006 276.5,546.5 Z"/></g>
<g><path style="opacity:1" fill="#c0bfc9" d="M 422.5,543.5 C 421.067,545.558 420.4,547.892 420.5,550.5C 419.833,553.5 419.167,556.5 418.5,559.5C 417.313,561.072 416.313,562.739 415.5,564.5C 416.434,559.541 417.267,554.541 418,549.5C 418.792,546.894 420.292,544.894 422.5,543.5 Z"/></g>
<g><path style="opacity:1" fill="#57536b" d="M 278.5,554.5 C 279.117,554.611 279.617,554.944 280,555.5C 280.42,559.952 281.253,564.285 282.5,568.5C 281.442,567.4 280.608,566.066 280,564.5C 279.661,561.12 279.161,557.787 278.5,554.5 Z"/></g>
<g><path style="opacity:1" fill="#6c4734" d="M 566.5,551.5 C 566.833,551.5 567.167,551.5 567.5,551.5C 567.19,554.713 567.523,557.713 568.5,560.5C 568.5,561.5 568.5,562.5 568.5,563.5C 568.629,565.216 568.962,566.883 569.5,568.5C 568.883,568.389 568.383,568.056 568,567.5C 566.905,562.22 566.405,556.887 566.5,551.5 Z"/></g>
<g><path style="opacity:1" fill="#352434" d="M 565.5,517.5 C 565.172,529.012 565.505,540.346 566.5,551.5C 566.405,556.887 566.905,562.22 568,567.5C 568.383,568.056 568.883,568.389 569.5,568.5C 569.631,572.285 570.298,575.952 571.5,579.5C 570.504,579.586 569.671,579.252 569,578.5C 564.497,558.317 563.33,537.984 565.5,517.5 Z"/></g>
<g><path style="opacity:1" fill="#ca7e2d" d="M 655.5,554.5 C 655.833,554.5 656.167,554.5 656.5,554.5C 657.083,557.947 658.416,560.947 660.5,563.5C 661.971,569.098 664.971,573.765 669.5,577.5C 669.433,578.959 669.766,580.292 670.5,581.5C 667.812,580.976 666.312,579.309 666,576.5C 663.064,575.428 661.064,573.428 660,570.5C 658.4,565.2 656.9,559.866 655.5,554.5 Z"/></g>
<g><path style="opacity:1" fill="#4d4961" d="M 418.5,559.5 C 417.402,565.489 416.236,571.489 415,577.5C 414.623,578.942 413.79,579.942 412.5,580.5C 412.517,578.435 412.85,576.435 413.5,574.5C 414.546,571.272 415.212,567.939 415.5,564.5C 416.313,562.739 417.313,561.072 418.5,559.5 Z"/></g>
<g><path style="opacity:1" fill="#ac6d30" d="M 568.5,563.5 C 570.105,565.48 571.272,567.813 572,570.5C 572.499,574.486 572.666,578.486 572.5,582.5C 571.596,581.791 571.263,580.791 571.5,579.5C 570.298,575.952 569.631,572.285 569.5,568.5C 568.962,566.883 568.629,565.216 568.5,563.5 Z"/></g>
<g><path style="opacity:1" fill="#875731" d="M 815.5,582.5 C 813.166,586.276 809.833,588.609 805.5,589.5C 808.785,587.17 812.118,584.837 815.5,582.5 Z"/></g>
<g><path style="opacity:1" fill="#855836" d="M 815.5,582.5 C 816.946,581.387 818.613,581.22 820.5,582C 822.246,584.659 823.58,587.492 824.5,590.5C 823.624,590.631 822.957,590.298 822.5,589.5C 820.98,587.338 819.98,585.005 819.5,582.5C 818.167,582.5 816.833,582.5 815.5,582.5 Z"/></g>
<g><path style="opacity:1" fill="#7d5133" d="M 673.5,584.5 C 676.089,585.419 678.089,587.086 679.5,589.5C 676.712,588.774 674.712,587.107 673.5,584.5 Z"/></g>
<g><path style="opacity:1" fill="#a39faf" d="M 547.5,580.5 C 548.558,581.6 549.392,582.934 550,584.5C 550.236,588.339 551.069,592.006 552.5,595.5C 551.25,595.423 550.417,594.756 550,593.5C 549.58,589.048 548.747,584.715 547.5,580.5 Z"/></g>
<g><path style="opacity:1" fill="#754b32" d="M 572.5,582.5 C 574.99,585.626 576.323,589.292 576.5,593.5C 574.177,590.286 572.844,586.62 572.5,582.5 Z"/></g>
<g><path style="opacity:1" fill="#b3722f" d="M 576.5,593.5 C 577.807,594.153 579.14,594.82 580.5,595.5C 581.255,598.652 582.255,601.652 583.5,604.5C 582.833,604.167 582.167,603.833 581.5,603.5C 579.464,600.421 577.798,597.088 576.5,593.5 Z"/></g>
<g><path style="opacity:1" fill="#5e3f36" d="M 686.5,595.5 C 687.978,595.238 689.311,595.571 690.5,596.5C 693.752,598.28 696.752,600.28 699.5,602.5C 698.833,602.5 698.167,602.5 697.5,602.5C 693.564,600.558 689.897,598.225 686.5,595.5 Z"/></g>
<g><path style="opacity:1" fill="#5e5971" d="M 288.5,591.5 C 290.982,593.503 291.982,596.169 291.5,599.5C 289.977,597.104 288.977,594.438 288.5,591.5 Z"/></g>
<g><path style="opacity:1" fill="#f0942b" d="M 815.5,582.5 C 816.833,582.5 818.167,582.5 819.5,582.5C 819.98,585.005 820.98,587.338 822.5,589.5C 822.957,590.298 823.624,590.631 824.5,590.5C 824.5,590.833 824.5,591.167 824.5,591.5C 825.883,598.068 828.883,603.734 833.5,608.5C 833.53,611.852 834.863,614.518 837.5,616.5C 838.698,619.793 840.365,622.793 842.5,625.5C 843.083,628.947 844.416,631.947 846.5,634.5C 847.833,634.5 848.5,635.167 848.5,636.5C 849.219,638.764 849.552,641.097 849.5,643.5C 847.931,641.057 846.431,638.391 845,635.5C 841.376,641.941 835.876,644.608 828.5,643.5C 828.89,640.017 829.89,636.684 831.5,633.5C 832.478,633.977 833.311,634.643 834,635.5C 834.334,633.153 834.167,630.819 833.5,628.5C 830.419,627.345 827.586,628.012 825,630.5C 823.105,629.311 821.105,628.311 819,627.5C 818.227,624.789 817.06,622.289 815.5,620C 816.839,616.82 819.173,614.986 822.5,614.5C 821.353,610.859 820.019,607.192 818.5,603.5C 822.131,599.266 822.298,594.933 819,590.5C 817.331,592.169 816.498,594.169 816.5,596.5C 815.127,596.343 813.793,596.51 812.5,597C 813.911,599.378 815.077,601.878 816,604.5C 816.667,605.833 816.667,607.167 816,608.5C 812.272,610.862 808.605,610.862 805,608.5C 805.04,604.777 805.373,601.111 806,597.5C 804.605,596.185 803.605,596.519 803,598.5C 802.29,597.027 801.124,596.36 799.5,596.5C 800.45,593.885 802.117,591.885 804.5,590.5C 804.5,589.833 804.833,589.5 805.5,589.5C 809.833,588.609 813.166,586.276 815.5,582.5 Z"/></g>
<g><path style="opacity:1" fill="#966134" d="M 824.5,591.5 C 826.451,592.716 827.951,594.382 829,596.5C 830.227,600.617 831.727,604.617 833.5,608.5C 828.883,603.734 825.883,598.068 824.5,591.5 Z"/></g>
<g><path style="opacity:1" fill="#403c56" d="M 448.5,575.5 C 449.167,576.167 449.833,576.833 450.5,577.5C 452.383,581.609 453.383,585.943 453.5,590.5C 455.353,596.475 456.853,602.475 458,608.5C 458.74,610.319 459.907,611.652 461.5,612.5C 461.5,614.833 461.5,617.167 461.5,619.5C 459.647,614.788 457.48,610.121 455,605.5C 453.801,595.127 451.634,585.127 448.5,575.5 Z"/></g>
<g><path style="opacity:1" fill="#a7a6b4" d="M 453.5,590.5 C 455.117,592.121 456.284,594.121 457,596.5C 458.204,601.993 459.704,607.327 461.5,612.5C 459.907,611.652 458.74,610.319 458,608.5C 456.853,602.475 455.353,596.475 453.5,590.5 Z"/></g>
<g><path style="opacity:1" fill="#b5b3be" d="M 552.5,595.5 C 553.986,600.094 556.153,604.428 559,608.5C 559.49,609.793 559.657,611.127 559.5,612.5C 557.604,609.343 555.438,606.343 553,603.5C 552.503,600.854 552.336,598.187 552.5,595.5 Z"/></g>
<g><path style="opacity:1" fill="#f9952b" d="M 849.5,643.5 C 848.426,645.216 846.759,646.216 844.5,646.5C 843.264,645.754 841.93,645.421 840.5,645.5C 838.763,647.794 837.596,650.46 837,653.5C 834.475,650.618 831.475,649.952 828,651.5C 825.495,654.011 823.161,656.678 821,659.5C 820.333,658.833 819.667,658.167 819,657.5C 817.867,659.211 816.367,659.711 814.5,659C 815.956,658.577 816.456,657.744 816,656.5C 815,655.167 814,655.167 813,656.5C 812.626,655.584 812.126,654.75 811.5,654C 809.333,653.833 807.167,653.667 805,653.5C 799.354,657.112 796.021,655.779 795,649.5C 794.5,642.842 794.334,636.175 794.5,629.5C 791.05,628.756 789.384,630.09 789.5,633.5C 787.143,633.337 784.81,633.503 782.5,634C 780.963,635.11 780.297,636.61 780.5,638.5C 779.5,638.5 778.5,638.5 777.5,638.5C 777.5,635.833 777.5,633.167 777.5,630.5C 782.206,631.119 784.873,629.119 785.5,624.5C 789.955,625.378 793.289,623.878 795.5,620C 792.125,617.59 788.792,615.09 785.5,612.5C 785.783,611.711 786.283,611.044 787,610.5C 789.955,612.613 793.122,614.28 796.5,615.5C 801.316,612.75 801.65,609.584 797.5,606C 798.86,604.062 798.527,602.396 796.5,601C 797.883,599.729 798.883,598.229 799.5,596.5C 801.124,596.36 802.29,597.027 803,598.5C 803.605,596.519 804.605,596.185 806,597.5C 805.373,601.111 805.04,604.777 805,608.5C 808.605,610.862 812.272,610.862 816,608.5C 816.667,607.167 816.667,605.833 816,604.5C 815.077,601.878 813.911,599.378 812.5,597C 813.793,596.51 815.127,596.343 816.5,596.5C 816.498,594.169 817.331,592.169 819,590.5C 822.298,594.933 822.131,599.266 818.5,603.5C 820.019,607.192 821.353,610.859 822.5,614.5C 819.173,614.986 816.839,616.82 815.5,620C 817.06,622.289 818.227,624.789 819,627.5C 821.105,628.311 823.105,629.311 825,630.5C 827.586,628.012 830.419,627.345 833.5,628.5C 834.167,630.819 834.334,633.153 834,635.5C 833.311,634.643 832.478,633.977 831.5,633.5C 829.89,636.684 828.89,640.017 828.5,643.5C 835.876,644.608 841.376,641.941 845,635.5C 846.431,638.391 847.931,641.057 849.5,643.5 Z"/></g>
<g><path style="opacity:1" fill="#f2952b" d="M 650.5,527.5 C 650.975,534.544 652.309,541.21 654.5,547.5C 655.369,549.717 655.702,552.05 655.5,554.5C 656.9,559.866 658.4,565.2 660,570.5C 661.064,573.428 663.064,575.428 666,576.5C 666.312,579.309 667.812,580.976 670.5,581.5C 671.272,582.694 672.272,583.694 673.5,584.5C 674.712,587.107 676.712,588.774 679.5,589.5C 681.878,591.552 684.211,593.552 686.5,595.5C 689.897,598.225 693.564,600.558 697.5,602.5C 697.804,603.15 698.137,603.817 698.5,604.5C 702.011,606.542 705.678,608.209 709.5,609.5C 707.569,612.097 705.236,614.431 702.5,616.5C 699.278,616.025 696.278,615.025 693.5,613.5C 692.571,614.689 692.238,616.022 692.5,617.5C 688.224,616.275 684.057,616.608 680,618.5C 679.383,619.449 679.549,620.282 680.5,621C 683.248,622.079 685.915,623.246 688.5,624.5C 692.498,622.637 695.998,619.97 699,616.5C 699.72,618.112 699.554,619.612 698.5,621C 699.714,622.569 701.381,623.402 703.5,623.5C 706.59,623.248 709.59,622.581 712.5,621.5C 714.814,622.91 716.48,622.243 717.5,619.5C 718.957,622.602 720.957,623.102 723.5,621C 721.208,619.71 719.208,618.043 717.5,616C 720.955,614.889 722.955,616.056 723.5,619.5C 724.5,619.5 725.5,619.5 726.5,619.5C 726.281,618.325 726.614,617.325 727.5,616.5C 729.839,617.724 732.172,617.724 734.5,616.5C 732.901,614.271 730.901,613.938 728.5,615.5C 728.167,615.167 727.833,614.833 727.5,614.5C 730.034,613.223 732.534,613.223 735,614.5C 735.233,616.78 736.066,618.78 737.5,620.5C 738.287,619.758 738.953,618.925 739.5,618C 745.585,617.773 751.585,617.773 757.5,618C 758,618.5 758.5,619 759,619.5C 759.228,623.917 759.728,628.25 760.5,632.5C 760.389,633.117 760.056,633.617 759.5,634C 753.843,634.499 748.176,634.666 742.5,634.5C 742.5,632.5 742.5,630.5 742.5,628.5C 736.833,628.5 731.167,628.5 725.5,628.5C 725.739,630.467 725.406,632.301 724.5,634C 713.5,634.333 702.5,634.667 691.5,635C 690.663,636.011 690.33,637.178 690.5,638.5C 703.171,638.333 715.838,638.5 728.5,639C 729.716,645.61 729.716,651.943 728.5,658C 737.13,659.086 745.797,659.753 754.5,660C 756.138,663.057 757.471,663.057 758.5,660C 763.155,659.501 767.821,659.334 772.5,659.5C 771.828,656.65 770.161,654.483 767.5,653C 768.905,651.731 770.571,651.231 772.5,651.5C 772.5,648.833 772.5,646.167 772.5,643.5C 762.828,643.666 753.161,643.5 743.5,643C 742.167,641.667 742.167,640.333 743.5,639C 750.492,638.5 757.492,638.334 764.5,638.5C 764.5,637.167 764.5,635.833 764.5,634.5C 767.167,634.5 769.833,634.5 772.5,634.5C 772.336,631.813 772.503,629.146 773,626.5C 774.399,625.773 775.899,625.273 777.5,625C 775.157,623.585 772.823,623.418 770.5,624.5C 770.859,622.234 770.192,620.401 768.5,619C 771.3,617.768 774.3,617.101 777.5,617C 778.878,613.363 781.545,611.863 785.5,612.5C 788.792,615.09 792.125,617.59 795.5,620C 793.289,623.878 789.955,625.378 785.5,624.5C 784.873,629.119 782.206,631.119 777.5,630.5C 777.5,633.167 777.5,635.833 777.5,638.5C 778.5,638.5 779.5,638.5 780.5,638.5C 780.297,636.61 780.963,635.11 782.5,634C 784.81,633.503 787.143,633.337 789.5,633.5C 789.384,630.09 791.05,628.756 794.5,629.5C 794.334,636.175 794.5,642.842 795,649.5C 796.021,655.779 799.354,657.112 805,653.5C 807.167,653.667 809.333,653.833 811.5,654C 812.126,654.75 812.626,655.584 813,656.5C 814,655.167 815,655.167 816,656.5C 816.456,657.744 815.956,658.577 814.5,659C 816.367,659.711 817.867,659.211 819,657.5C 819.667,658.167 820.333,658.833 821,659.5C 823.161,656.678 825.495,654.011 828,651.5C 831.475,649.952 834.475,650.618 837,653.5C 837.596,650.46 838.763,647.794 840.5,645.5C 841.93,645.421 843.264,645.754 844.5,646.5C 846.759,646.216 848.426,645.216 849.5,643.5C 851.913,644.68 852.913,646.68 852.5,649.5C 849.911,650.419 847.911,652.086 846.5,654.5C 844.804,655.834 843.138,657.168 841.5,658.5C 835.923,659.621 831.256,662.287 827.5,666.5C 824.413,667.247 821.746,668.58 819.5,670.5C 816.67,670.694 814.004,671.361 811.5,672.5C 806.461,673.843 801.461,675.343 796.5,677C 795.058,677.377 794.058,678.21 793.5,679.5C 790.982,680.264 788.649,681.264 786.5,682.5C 784.5,682.833 782.5,683.167 780.5,683.5C 774.491,683.334 768.491,683.501 762.5,684C 758.833,685 755.167,686 751.5,687C 736.819,687.685 722.152,687.518 707.5,686.5C 703.242,685.592 698.908,684.925 694.5,684.5C 691.813,684.664 689.146,684.497 686.5,684C 683.107,682.067 679.441,680.9 675.5,680.5C 675.167,680.5 674.833,680.5 674.5,680.5C 668.595,678.417 662.928,675.75 657.5,672.5C 661.331,672.751 664.664,671.584 667.5,669C 673.167,668.667 678.833,668.333 684.5,668C 689.335,665.317 691.335,666.817 690.5,672.5C 695.623,672.709 700.623,672.042 705.5,670.5C 702.478,669.996 701.311,668.329 702,665.5C 703.906,664.869 705.906,664.536 708,664.5C 712.137,665.272 716.304,666.105 720.5,667C 720.957,667.414 721.291,667.914 721.5,668.5C 717.513,670.922 717.846,672.922 722.5,674.5C 723.308,674.192 723.975,673.692 724.5,673C 732.216,672.2 739.883,672.367 747.5,673.5C 751.034,671.524 754.701,669.857 758.5,668.5C 758.833,668 759.167,667.5 759.5,667C 758.465,665.726 757.298,664.56 756,663.5C 751.586,664.801 746.919,665.468 742,665.5C 737.5,665.333 733,665.167 728.5,665C 726.963,663.89 726.297,662.39 726.5,660.5C 717.838,661.178 709.171,661.344 700.5,661C 697.808,658.368 698.141,656.034 701.5,654C 707.196,653.83 712.862,653.33 718.5,652.5C 716.995,651.158 716.328,649.492 716.5,647.5C 714.334,647.421 712.334,646.754 710.5,645.5C 704.381,647.202 698.048,648.035 691.5,648C 690.975,648.692 690.308,649.192 689.5,649.5C 688.107,648.137 686.441,647.304 684.5,647C 683.115,643.73 681.115,640.897 678.5,638.5C 677.833,632.833 677.167,627.167 676.5,621.5C 673.397,621.923 670.564,622.923 668,624.5C 663.333,621.167 663.333,617.833 668,614.5C 669.444,616.155 671.278,616.822 673.5,616.5C 673.351,615.448 673.517,614.448 674,613.5C 677.112,611.725 679.945,609.558 682.5,607C 685.817,606.502 689.15,606.335 692.5,606.5C 692.885,611.236 694.219,611.569 696.5,607.5C 695.691,605.929 695.357,604.262 695.5,602.5C 691.889,602.956 688.556,602.289 685.5,600.5C 684.914,600.709 684.414,601.043 684,601.5C 682.048,599.002 679.715,598.335 677,599.5C 676.035,597.74 674.868,597.406 673.5,598.5C 676.298,600.566 675.965,602.066 672.5,603C 673.451,603.718 673.617,604.551 673,605.5C 671.136,608.207 668.636,609.041 665.5,608C 661.584,604.346 660.584,600.012 662.5,595C 659.422,591.666 656.589,591.499 654,594.5C 653.667,597.833 653.333,601.167 653,604.5C 649.381,601.556 646.547,598.056 644.5,594C 642.152,593.654 640.319,592.487 639,590.5C 636.402,578.265 641.235,570.932 653.5,568.5C 648.987,566.705 644.32,565.538 639.5,565C 638.663,563.989 638.33,562.822 638.5,561.5C 634.267,562.258 631.601,560.591 630.5,556.5C 632.482,549.991 633.816,543.324 634.5,536.5C 634.418,533.907 633.252,531.907 631,530.5C 630.663,527.139 630.163,523.806 629.5,520.5C 631.222,515.977 634.555,514.311 639.5,515.5C 639.328,517.492 639.995,519.158 641.5,520.5C 641.154,521.696 640.654,521.696 640,520.5C 639.349,522.235 639.515,523.902 640.5,525.5C 639.617,526.548 638.95,527.715 638.5,529C 639.833,530.333 639.833,531.667 638.5,533C 639.921,534.419 640.921,536.086 641.5,538C 638.848,540.716 639.514,541.716 643.5,541C 644.693,538.973 646.36,537.473 648.5,536.5C 649.854,533.933 649.52,531.599 647.5,529.5C 648.005,528.081 649.005,527.415 650.5,527.5 Z"/></g>
<g><path style="opacity:1" fill="#825535" d="M 804.5,590.5 C 802.117,591.885 800.45,593.885 799.5,596.5C 792.641,599.019 785.974,601.853 779.5,605C 774.761,606.243 770.094,607.41 765.5,608.5C 773.988,605.792 782.321,602.626 790.5,599C 795.486,596.504 800.153,593.671 804.5,590.5 Z"/></g>
<g><path style="opacity:1" fill="#825535" d="M 581.5,603.5 C 582.167,603.833 582.833,604.167 583.5,604.5C 584.572,609.106 586.572,613.106 589.5,616.5C 585.374,613.198 582.707,608.865 581.5,603.5 Z"/></g>
<g><path style="opacity:1" fill="#c67c2d" d="M 697.5,602.5 C 698.167,602.5 698.833,602.5 699.5,602.5C 703.172,603.835 706.838,605.168 710.5,606.5C 710.953,607.458 711.619,608.292 712.5,609C 717.448,610.05 722.448,610.55 727.5,610.5C 727.5,610.833 727.5,611.167 727.5,611.5C 721.369,611.621 715.369,610.954 709.5,609.5C 705.678,608.209 702.011,606.542 698.5,604.5C 698.137,603.817 697.804,603.15 697.5,602.5 Z"/></g>
<g><path style="opacity:1" fill="#915b32" d="M 710.5,606.5 C 712.117,607.038 713.784,607.371 715.5,607.5C 719.5,608.5 723.5,609.5 727.5,610.5C 722.448,610.55 717.448,610.05 712.5,609C 711.619,608.292 710.953,607.458 710.5,606.5 Z"/></g>
<g><path style="opacity:1" fill="#3b2835" d="M 715.5,607.5 C 728.152,608.261 740.819,608.595 753.5,608.5C 752.048,609.302 750.382,609.802 748.5,610C 741.508,610.5 734.508,610.666 727.5,610.5C 723.5,609.5 719.5,608.5 715.5,607.5 Z"/></g>
<g><path style="opacity:1" fill="#915a2b" d="M 753.5,608.5 C 756.833,608.5 760.167,608.5 763.5,608.5C 760.097,609.925 756.43,610.758 752.5,611C 744.173,611.5 735.84,611.666 727.5,611.5C 727.5,611.167 727.5,610.833 727.5,610.5C 734.508,610.666 741.508,610.5 748.5,610C 750.382,609.802 752.048,609.302 753.5,608.5 Z"/></g>
<g><path style="opacity:1" fill="#afadb9" d="M 413.5,574.5 C 412.85,576.435 412.517,578.435 412.5,580.5C 410.802,586.311 409.469,592.311 408.5,598.5C 407.883,598.611 407.383,598.944 407,599.5C 406.445,604.642 404.945,609.308 402.5,613.5C 404.703,601.737 407.203,590.07 410,578.5C 410.949,576.907 412.115,575.574 413.5,574.5 Z"/></g>
<g><path style="opacity:1" fill="#f18f2b" d="M 799.5,596.5 C 798.883,598.229 797.883,599.729 796.5,601C 798.527,602.396 798.86,604.062 797.5,606C 801.65,609.584 801.316,612.75 796.5,615.5C 793.122,614.28 789.955,612.613 787,610.5C 786.283,611.044 785.783,611.711 785.5,612.5C 781.545,611.863 778.878,613.363 777.5,617C 774.3,617.101 771.3,617.768 768.5,619C 770.192,620.401 770.859,622.234 770.5,624.5C 769.059,629.441 765.726,632.108 760.5,632.5C 759.728,628.25 759.228,623.917 759,619.5C 758.5,619 758,618.5 757.5,618C 751.585,617.773 745.585,617.773 739.5,618C 738.953,618.925 738.287,619.758 737.5,620.5C 736.066,618.78 735.233,616.78 735,614.5C 732.534,613.223 730.034,613.223 727.5,614.5C 727.833,614.833 728.167,615.167 728.5,615.5C 730.901,613.938 732.901,614.271 734.5,616.5C 732.172,617.724 729.839,617.724 727.5,616.5C 726.614,617.325 726.281,618.325 726.5,619.5C 725.5,619.5 724.5,619.5 723.5,619.5C 722.955,616.056 720.955,614.889 717.5,616C 719.208,618.043 721.208,619.71 723.5,621C 720.957,623.102 718.957,622.602 717.5,619.5C 716.48,622.243 714.814,622.91 712.5,621.5C 709.59,622.581 706.59,623.248 703.5,623.5C 701.381,623.402 699.714,622.569 698.5,621C 699.554,619.612 699.72,618.112 699,616.5C 695.998,619.97 692.498,622.637 688.5,624.5C 685.915,623.246 683.248,622.079 680.5,621C 679.549,620.282 679.383,619.449 680,618.5C 684.057,616.608 688.224,616.275 692.5,617.5C 692.238,616.022 692.571,614.689 693.5,613.5C 696.278,615.025 699.278,616.025 702.5,616.5C 705.236,614.431 707.569,612.097 709.5,609.5C 715.369,610.954 721.369,611.621 727.5,611.5C 735.84,611.666 744.173,611.5 752.5,611C 756.43,610.758 760.097,609.925 763.5,608.5C 764.167,608.5 764.833,608.5 765.5,608.5C 770.094,607.41 774.761,606.243 779.5,605C 785.974,601.853 792.641,599.019 799.5,596.5 Z"/></g>
<g><path style="opacity:1" fill="#965d2e" d="M 833.5,608.5 C 836.407,610.315 837.741,612.981 837.5,616.5C 834.863,614.518 833.53,611.852 833.5,608.5 Z"/></g>
<g><path style="opacity:1" fill="#38344f" d="M 408.5,598.5 C 406.863,605.376 405.363,613.042 404,621.5C 402.624,626.588 400.957,631.588 399,636.5C 398.617,637.056 398.117,637.389 397.5,637.5C 397.966,632.366 398.966,627.366 400.5,622.5C 401.167,619.5 401.833,616.5 402.5,613.5C 404.945,609.308 406.445,604.642 407,599.5C 407.383,598.944 407.883,598.611 408.5,598.5 Z"/></g>
<g><path style="opacity:1" fill="#ad7133" d="M 589.5,617.5 C 591.17,617.751 592.67,618.418 594,619.5C 595.027,622.887 596.527,625.887 598.5,628.5C 594.395,625.73 591.395,622.063 589.5,617.5 Z"/></g>
<g><path style="opacity:1" fill="#794e31" d="M 837.5,616.5 C 840.472,618.778 842.139,621.778 842.5,625.5C 840.365,622.793 838.698,619.793 837.5,616.5 Z"/></g>
<g><path style="opacity:1" fill="#fa952b" d="M 760.5,632.5 C 765.726,632.108 769.059,629.441 770.5,624.5C 772.823,623.418 775.157,623.585 777.5,625C 775.899,625.273 774.399,625.773 773,626.5C 772.503,629.146 772.336,631.813 772.5,634.5C 769.833,634.5 767.167,634.5 764.5,634.5C 764.5,635.833 764.5,637.167 764.5,638.5C 757.492,638.334 750.492,638.5 743.5,639C 742.167,640.333 742.167,641.667 743.5,643C 753.161,643.5 762.828,643.666 772.5,643.5C 772.5,646.167 772.5,648.833 772.5,651.5C 770.571,651.231 768.905,651.731 767.5,653C 770.161,654.483 771.828,656.65 772.5,659.5C 767.821,659.334 763.155,659.501 758.5,660C 757.471,663.057 756.138,663.057 754.5,660C 745.797,659.753 737.13,659.086 728.5,658C 729.716,651.943 729.716,645.61 728.5,639C 715.838,638.5 703.171,638.333 690.5,638.5C 690.33,637.178 690.663,636.011 691.5,635C 702.5,634.667 713.5,634.333 724.5,634C 725.406,632.301 725.739,630.467 725.5,628.5C 731.167,628.5 736.833,628.5 742.5,628.5C 742.5,630.5 742.5,632.5 742.5,634.5C 748.176,634.666 753.843,634.499 759.5,634C 760.056,633.617 760.389,633.117 760.5,632.5 Z"/></g>
<g><path style="opacity:1" fill="#afadbb" d="M 560.5,614.5 C 562.675,616.982 564.675,619.648 566.5,622.5C 567.596,626.413 567.762,630.413 567,634.5C 566.292,635.381 565.458,636.047 564.5,636.5C 564.216,633.223 564.549,630.057 565.5,627C 564.079,622.742 562.412,618.575 560.5,614.5 Z"/></g>
<g><path style="opacity:1" fill="#935c34" d="M 842.5,625.5 C 843.931,626.903 845.098,628.569 846,630.5C 846.49,631.793 846.657,633.127 846.5,634.5C 844.416,631.947 843.083,628.947 842.5,625.5 Z"/></g>
<g><path style="opacity:1" fill="#444059" d="M 566.5,622.5 C 567.8,624.223 568.467,626.39 568.5,629C 568.936,632.971 567.936,636.471 565.5,639.5C 564.285,644.473 563.285,649.473 562.5,654.5C 561.5,654.5 560.5,654.5 559.5,654.5C 560.338,659.675 559.004,664.008 555.5,667.5C 557.591,662.389 558.757,657.055 559,651.5C 561.763,646.871 563.597,641.871 564.5,636.5C 565.458,636.047 566.292,635.381 567,634.5C 567.762,630.413 567.596,626.413 566.5,622.5 Z"/></g>
<g><path style="opacity:1" fill="#bebdc7" d="M 400.5,622.5 C 398.966,627.366 397.966,632.366 397.5,637.5C 396.9,638.9 395.9,639.9 394.5,640.5C 395.789,635.933 396.789,631.266 397.5,626.5C 398.15,624.816 399.15,623.483 400.5,622.5 Z"/></g>
<g><path style="opacity:1" fill="#925d33" d="M 848.5,636.5 C 849.857,637.59 850.857,638.924 851.5,640.5C 852.615,642.307 853.281,644.307 853.5,646.5C 853.48,647.726 853.147,648.726 852.5,649.5C 852.913,646.68 851.913,644.68 849.5,643.5C 849.552,641.097 849.219,638.764 848.5,636.5 Z"/></g>
<g><path style="opacity:1" fill="#646278" d="M 397.5,637.5 C 396.102,641.633 395.269,645.966 395,650.5C 394.617,651.056 394.117,651.389 393.5,651.5C 394.114,647.865 394.448,644.198 394.5,640.5C 395.9,639.9 396.9,638.9 397.5,637.5 Z"/></g>
<g><path style="opacity:1" fill="#3b2934" d="M 851.5,640.5 C 855.416,642.765 856.416,646.098 854.5,650.5C 851.976,652.187 849.31,653.52 846.5,654.5C 847.911,652.086 849.911,650.419 852.5,649.5C 853.147,648.726 853.48,647.726 853.5,646.5C 853.281,644.307 852.615,642.307 851.5,640.5 Z"/></g>
<g><path style="opacity:1" fill="#555169" d="M 292.5,599.5 C 293.762,610.362 296.928,620.695 302,630.5C 302.497,633.146 302.664,635.813 302.5,638.5C 304.267,641.897 305.267,645.564 305.5,649.5C 302.283,642.997 300.116,635.997 299,628.5C 297.273,625.643 295.94,622.643 295,619.5C 292.961,613.069 292.127,606.402 292.5,599.5 Z"/></g>
<g><path style="opacity:1" fill="#6a667c" d="M 465.5,630.5 C 466.658,634.872 468.158,639.205 470,643.5C 470.497,646.146 470.664,648.813 470.5,651.5C 469.819,649.842 468.985,648.175 468,646.5C 467.329,641.062 466.496,635.728 465.5,630.5 Z"/></g>
<g><path style="opacity:1" fill="#dd8c2f" d="M 598.5,628.5 C 601.341,629.224 604.008,630.39 606.5,632C 609.289,635.961 612.289,639.794 615.5,643.5C 622.098,643.77 625.765,647.103 626.5,653.5C 629.803,653.735 632.137,655.402 633.5,658.5C 629.833,656.5 626.167,654.5 622.5,652.5C 612.883,646.216 604.883,638.216 598.5,628.5 Z"/></g>
<g><path style="opacity:1" fill="#996233" d="M 622.5,652.5 C 626.167,654.5 629.833,656.5 633.5,658.5C 633.833,659.167 634.167,659.833 634.5,660.5C 633.127,660.657 631.793,660.49 630.5,660C 627.79,657.585 625.123,655.085 622.5,652.5 Z"/></g>
<g><path style="opacity:1" fill="#bebcc7" d="M 302.5,638.5 C 304.335,639.122 305.502,640.456 306,642.5C 306.711,647.08 308.044,651.413 310,655.5C 311.015,659.44 311.515,663.44 311.5,667.5C 310.086,661.257 308.086,655.257 305.5,649.5C 305.267,645.564 304.267,641.897 302.5,638.5 Z"/></g>
<g><path style="opacity:1" fill="#79778a" d="M 470.5,652.5 C 471.833,654.833 473.167,657.167 474.5,659.5C 474.5,660.833 474.5,662.167 474.5,663.5C 472.358,660.2 471.025,656.533 470.5,652.5 Z"/></g>
<g><path style="opacity:1" fill="#885933" d="M 841.5,658.5 C 838.806,661.09 835.806,663.257 832.5,665C 830.846,665.608 829.179,666.108 827.5,666.5C 831.256,662.287 835.923,659.621 841.5,658.5 Z"/></g>
<g><path style="opacity:1" fill="#965f33" d="M 634.5,660.5 C 635.978,660.238 637.311,660.571 638.5,661.5C 640.367,663.667 642.367,665.667 644.5,667.5C 644.167,667.5 643.833,667.5 643.5,667.5C 640.818,666.099 638.152,664.599 635.5,663C 634.748,662.329 634.414,661.496 634.5,660.5 Z"/></g>
<g><path style="opacity:1" fill="#805536" d="M 827.5,666.5 C 825.349,668.718 822.682,670.052 819.5,670.5C 821.746,668.58 824.413,667.247 827.5,666.5 Z"/></g>
<g><path style="opacity:1" fill="#422c34" d="M 643.5,667.5 C 643.833,667.5 644.167,667.5 644.5,667.5C 648.974,668.908 653.307,670.575 657.5,672.5C 662.928,675.75 668.595,678.417 674.5,680.5C 663.976,678.535 653.976,675.035 644.5,670C 643.748,669.329 643.414,668.496 643.5,667.5 Z"/></g>
<g><path style="opacity:1" fill="#855834" d="M 819.5,670.5 C 818.1,671.1 817.1,672.1 816.5,673.5C 814.435,673.517 812.435,673.85 810.5,674.5C 810.833,673.833 811.167,673.167 811.5,672.5C 814.004,671.361 816.67,670.694 819.5,670.5 Z"/></g>
<g><path style="opacity:1" fill="#cac9d2" d="M 392.5,651.5 C 390.628,659.526 388.628,667.526 386.5,675.5C 362.661,675.831 338.994,675.498 315.5,674.5C 338.833,674.5 362.167,674.5 385.5,674.5C 385.337,672.143 385.503,669.81 386,667.5C 388.407,663.548 389.741,659.215 390,654.5C 390.377,653.058 391.21,652.058 392.5,651.5 Z"/></g>
<g><path style="opacity:1" fill="#d1d0d9" d="M 474.5,659.5 C 476.156,664.098 477.823,668.765 479.5,673.5C 503.824,674.5 528.158,674.833 552.5,674.5C 527.663,675.829 502.663,675.829 477.5,674.5C 476.867,671.268 475.867,668.268 474.5,665.5C 474.5,664.833 474.5,664.167 474.5,663.5C 474.5,662.167 474.5,660.833 474.5,659.5 Z"/></g>
<g><path style="opacity:1" fill="#7b788c" d="M 474.5,665.5 C 475.867,668.268 476.867,671.268 477.5,674.5C 502.663,675.829 527.663,675.829 552.5,674.5C 553.349,672.112 554.349,669.779 555.5,667.5C 555.846,670.602 555.179,673.435 553.5,676C 527.827,676.833 502.16,676.666 476.5,675.5C 474.699,672.465 474.032,669.131 474.5,665.5 Z"/></g>
<g><path style="opacity:1" fill="#352534" d="M 816.5,673.5 C 810.756,677.195 804.423,679.528 797.5,680.5C 798.694,679.728 799.694,678.728 800.5,677.5C 804.248,677.693 807.582,676.693 810.5,674.5C 812.435,673.85 814.435,673.517 816.5,673.5 Z"/></g>
<g><path style="opacity:1" fill="#5d5870" d="M 305.5,649.5 C 308.086,655.257 310.086,661.257 311.5,667.5C 312.688,669.988 314.021,672.322 315.5,674.5C 338.994,675.498 362.661,675.831 386.5,675.5C 374.852,676.832 362.852,677.499 350.5,677.5C 338.5,677.333 326.5,677.167 314.5,677C 313.241,674.038 311.741,671.205 310,668.5C 308.562,662.048 307.062,655.715 305.5,649.5 Z"/></g>
<g><path style="opacity:1" fill="#c57f30" d="M 811.5,672.5 C 811.167,673.167 810.833,673.833 810.5,674.5C 807.582,676.693 804.248,677.693 800.5,677.5C 798.167,678.167 795.833,678.833 793.5,679.5C 794.058,678.21 795.058,677.377 796.5,677C 801.461,675.343 806.461,673.843 811.5,672.5 Z"/></g>
<g><path style="opacity:1" fill="#955e34" d="M 800.5,677.5 C 799.694,678.728 798.694,679.728 797.5,680.5C 794.308,680.405 791.308,681.071 788.5,682.5C 787.833,682.5 787.167,682.5 786.5,682.5C 788.649,681.264 790.982,680.264 793.5,679.5C 795.833,678.833 798.167,678.167 800.5,677.5 Z"/></g>
<g><path style="opacity:1" fill="#462d34" d="M 675.5,680.5 C 679.441,680.9 683.107,682.067 686.5,684C 689.146,684.497 691.813,684.664 694.5,684.5C 695.167,685.167 695.833,685.833 696.5,686.5C 688.477,687.247 681.477,685.247 675.5,680.5 Z"/></g>
<g><path style="opacity:1" fill="#774e36" d="M 694.5,684.5 C 698.908,684.925 703.242,685.592 707.5,686.5C 708.833,687.167 710.167,687.833 711.5,688.5C 706.5,687.833 701.5,687.167 696.5,686.5C 695.833,685.833 695.167,685.167 694.5,684.5 Z"/></g>
<g><path style="opacity:1" fill="#b77832" d="M 780.5,683.5 C 773.293,684.943 765.959,686.443 758.5,688C 742.837,688.5 727.17,688.667 711.5,688.5C 710.167,687.833 708.833,687.167 707.5,686.5C 722.152,687.518 736.819,687.685 751.5,687C 755.167,686 758.833,685 762.5,684C 768.491,683.501 774.491,683.334 780.5,683.5 Z"/></g>
<g><path style="opacity:1" fill="#553736" d="M 786.5,682.5 C 787.167,682.5 787.833,682.5 788.5,682.5C 779.757,685.088 770.757,687.255 761.5,689C 744.662,689.828 727.995,689.662 711.5,688.5C 727.17,688.667 742.837,688.5 758.5,688C 765.959,686.443 773.293,684.943 780.5,683.5C 782.5,683.167 784.5,682.833 786.5,682.5 Z"/></g>
<g><path style="opacity:1" fill="#f7f7f7" d="M -0.5,987.5 C 7.52484,1039.19 37.1915,1069.86 88.5,1079.5C 58.8333,1079.5 29.1667,1079.5 -0.5,1079.5C -0.5,1048.83 -0.5,1018.17 -0.5,987.5 Z"/></g>
<g><path style="opacity:1" fill="#f7f7f7" d="M 1079.5,986.5 C 1079.5,1017.5 1079.5,1048.5 1079.5,1079.5C 1049.83,1079.5 1020.17,1079.5 990.5,1079.5C 1042.31,1069.69 1071.98,1038.69 1079.5,986.5 Z"/></g>
</svg>
